<svg xmlns="http://www.w3.org/2000/svg" viewBox="0 0 1080 1080" xml:space="preserve"><path fill="transparent" d="M682 1081H1.04V1.102h1079.796V1081zm-9.258-164.345c.114.139.227.278.26 1.138l-9.495 14.406 1.157 1.245 9.668-3.627 1.07.72c-.823 1.671-1.354 3.587-2.52 4.97-4.752 5.64-9.943 10.926-14.49 16.72-3.166 4.034-1.763 10.184 2.012 10.687 3.424.457 7.063.669 9.217-3.055 2.483-4.29 4.894-8.62 7.415-12.886 3.209-5.43 1.838-13.077 8.37-16.934a43.5 43.5 0 0 0 7.003-5.17c1.58-1.428 2.704-3.36 4.03-5.067l-1.627-1.59c-5.137 3.79-10.274 7.58-15.3 11.29l-5.382-3.31c1.59-3.325 3.526-6.67 4.807-10.25 1.267-3.542-2.294-7.243-5.463-5.582-3.775 1.978-7.53 4.534-10.331 7.693-3.38 3.812-5.59 8.632-8.597 12.807-3.028 4.205-6.41 8.154-9.638 12.215-.908-1.888-.84-3.059-.92-4.22-.358-5.177-.18-9.965 6.203-11.647 1.314-.347 2.507-1.496 3.54-2.497 3.113-3.012 4.264-8.162 2.384-10.083-2.65-2.706-7.288-2.122-10.714 1.509-6.357 6.737-7.895 15.005-7.414 23.896.137 2.535-.788 5.934 2.902 6.24 2.61.216 5.961-.273 7.876-1.818 2.958-2.386 4.947-5.963 7.39-9 5.271-6.55 8.103-15.168 16.587-18.8m-471 13c.114.139.227.278.264 1.328-.002 2.667.166 5.347-.048 7.996-.285 3.552 1.832 4.975 4.486 3.858 3.174-1.336 5.838-3.886 7.647-5.155 1.53 2.053 2.908 5.388 5.391 6.875 3.489 2.089 6.506-.434 8.803-3.34 3.832-4.85 7.737-9.641 11.497-14.544 1.698-2.215 3.124-4.64 4.673-6.97l-2.178-1.6c-3.061 3.767-6.132 7.526-9.182 11.3-3.235 4.004-6.45 8.023-9.777 12.164-4.56-5.688 2.576-28.44 9.542-32.298l-1.913 9.368c3.62-.276 3.256-.407 5.233-5.91 1.135-3.158.948-5.268-1.826-6.856-2.827-1.618-5.825-1.739-7.849 1.225-2.694 3.946-5.431 7.946-7.453 12.25-3.133 6.67-5.528 13.714-12.375 19.063 1.234-5.528 2.393-10.175 3.257-14.878.307-1.67-.103-3.47-.186-5.212-1.624.765-3.6 1.175-4.807 2.364-3.458 3.41-6.604 7.138-10.21 11.112-3.446-7.983-7.3-14.66-1.354-21.585l1.511.126-1.661 12.284c4.7 1.81 4.789-2.376 5.193-4.658 1.426-8.043 1.475-11.334-7.029-10.889-5.019.263-6.555 4.597-6.197 8.384.64 6.771 2.461 13.43 3.863 20.514-2.037 3.19-4.677 7.065-7.042 11.1-2.133 3.64-1.582 7.291 2.087 9.353 3.314 1.864 7.174.687 8.738-2.594 2.018-4.232 4.358-9.248 3.774-13.547-.739-5.432 1.397-8.19 5.128-10.628m-41.428-12.336s-.063-.063-.296.724c-.312 1.233-.65 2.46-.93 3.7-1.522 6.746 3.03 11.96 9.389 10.058 2.825-.845 5.55-3.365 7.423-5.812 6.733-8.8 10.782-18.93 12.892-29.747a28 28 0 0 0 .007-10.423c-1.233-6.38-9.468-7.882-14.67-2.263-5.322 5.749-9.753 12.322-13.855 17.607 1.017-4.283 2.031-10.123 3.844-15.702 1.449-4.462-.374-4.772-4.212-4.242-1.296 3.729-2.874 7.42-3.859 11.262-3.069 11.98-6.192 23.959-8.732 36.056-1.366 6.502-1.838 13.235-2.138 19.89-.077 1.712 2.02 3.523 3.118 5.288 1.164-1.387 2.978-2.609 3.38-4.19 1.98-7.794 3.462-15.715 5.389-23.525.731-2.964 2.186-5.75 3.25-8.681m731.428 14.336c.114.139.227.278.264 1.293-.002 1.66-.499 3.534.105 4.933 1.053 2.441 2.292 5.385 4.355 6.66 2.58 1.594 5.564.534 7.761-2.187 3.03-3.752 6.377-7.247 9.436-10.682.415 1.91.66 4.147 1.4 6.207 1.471 4.102 7.494 7.763 11.452 7.098 5.092-.855 6.24-5.213 6.274-9.024.042-4.625-1.47-9.264-2.372-14.239h14.891c-2.56-2.95-13.768-3.807-21.665-2.068 0 0 .056.055.343-.573l5.242-6.3c-3.593-2.376-6.566-1.875-8.902 1.503-3.202 4.629-6.079 9.489-9.402 14.025s-7.025 8.792-10.694 13.336c-4.257-5.788 1.94-26.014 9.678-32.944l-1.977 10.256c5.285.036 4.602-4.016 5.42-6.776 1.405-4.73-.57-7.78-5.273-6.939-2.824.506-5.857 2.85-7.676 5.225-2.376 3.101-3.23 7.343-5.501 10.554-2.355 3.329-5.62 6.013-8.487 8.98-1.465-3.028-3.604-5.926-4.218-9.118-.728-3.782-.967-8.126 3.99-10.782l-1.26 13.28c5.346-1.06 4.443-4.932 5.208-7.806 1.128-4.242-.405-7.9-3.585-8.557-5.243-1.082-9.142 1.455-9.52 6.33-.177 2.284.778 5.062-.212 6.802-3.544 6.232-7.7 12.116-11.626 18.132l-1.183-.694c1.003-5.173 2.064-10.337 2.966-15.527.208-1.192-.128-2.479-.214-3.722-1.386.528-3.223.667-4.079 1.655-3.075 3.548-5.755 7.434-8.707 11.094-2.853 3.537-5.857 6.951-8.794 10.42-1.443-12.609 1.39-23.264 10.046-32.001l-2.07 9.175c3.832.1 5.512-1.72 5.772-6.773.114-2.226 1.134-4.937-2.458-6.135-3.068-1.024-5.754-1.609-7.941 1.275-1.948 2.567-4.075 5.104-5.457 7.974-4.34 9.013-6.569 19.079-13.814 26.33-.114-.139-.227-.278-.264-1.26.128-1.297.115-2.627.406-3.887 1.627-7.051 3.445-14.062 4.887-21.15.246-1.206-.67-3.201-1.693-3.932-.752-.537-2.927-.019-3.805.768-1.53 1.37-2.715 3.214-3.748 5.028-2.819 4.95-5.484 9.989-8.537 15.594-1.784-6.4 4.168-12.075-.587-18.348-2.893 5.332-5.16 10.085-7.957 14.501-2.744 4.33-6.03 8.319-9.51 13.046-.701-1.564-1.141-2.06-1.04-2.388 2.5-8.07 5.106-16.11 7.55-24.197.34-1.13-.064-2.486-.123-3.737-1.394.488-3.195.593-4.091 1.548-1.623 1.727-2.706 3.962-4.027 6.004-4.71-4.213-9.878-5.537-12.5-2.466-3.85 4.505-7.473 9.54-7.07 15.914.116 1.83 1.7 4.569 3.207 5.058 1.929.627 4.749-.095 6.644-1.18 1.658-.949 2.569-3.204 3.81-4.883 1.088 1.742 1.31 2.508 1.053 3.043-1.91 3.973-.926 7.87 2.305 9.934 3.198 2.043 6.97.976 9.486-2.498 1.87-2.582 3.856-5.078 5.146-6.768 1.543 1.92 2.824 4.963 4.635 5.32 1.538.305 4.153-2.158 5.467-3.988 2.495-3.476 4.4-7.375 6.551-11.098.38 1.474.08 2.76-.199 4.048-1.088 5.03-2.464 10.026-3.086 15.114-.204 1.668 1.146 4.505 2.532 5.116 1.39.613 4.343-.305 5.499-1.569 2.883-3.154 5.134-6.885 7.43-10.09.827 5.754 3.693 8.557 8.207 6.917 2.294-.833 4.346-2.771 6.074-4.616 2.348-2.506 4.282-5.401 7.09-9.03 0 2.758-.232 4.263.055 5.662.425 2.069 1.22 4.062 1.856 6.087 2.346-.793 5.409-.916 6.898-2.51 3.727-3.99 6.742-8.647 10.041-13.038 4.115 6.513 4.007 6.438-.335 12.65-1.916 2.742-3.43 5.796-4.878 8.827-1.529 3.2-.376 5.586 2.737 7.17 3.897 1.983 8.56.715 10.441-4.043 1.555-3.934 2.35-8.58 1.943-12.76-.383-3.928 1.022-6.027 3.984-7.603M347.73 920.666c.118.136.236.27.277 1.22-1.336 7.103-2.914 14.174-3.834 21.33-.227 1.769 1.233 4.846 2.716 5.495 2.459 1.074 5.47.673 7.12-2.51 2.282-4.399 4.768-8.69 7.167-13.028l.556 1.458c1.886-.513 4.282-.485 5.539-1.667 1.886-1.773 2.973-4.396 3.884-5.838 1.142 1.78 1.997 4.78 3.845 5.637 3.603 1.672 4.398-2.516 5.868-4.483 2.11-2.825 3.532-6.163 5.248-9.281.827 1.044.962 1.732.806 2.346-1.609 6.35-3.525 12.638-4.795 19.053-.61 3.08-.918 7.135 2.979 8.445 4.058 1.363 6.742-1.166 8.44-4.844 1.127-2.44 2.48-4.777 3.824-7.335 5.919 3.461 9.601.34 13.373-3.01.114.14.227.28.264 1.271-.106 3.98-.519 8.592 4.24 9.896 4.638 1.272 8.016-1.452 10.23-5.699 1.081-2.072 2.717-3.854 4.391-6.17.062 1.059.217 1.678.112 2.25-.536 2.933.71 5.223 3.465 5.409 1.472.1 3.53-1.651 4.557-3.107 2.756-3.904 5.1-8.099 7.607-12.178.189 1.634-.273 3.091-.57 4.58-1.043 5.213-2.254 10.41-2.88 15.675-.158 1.325 1.327 3.606 2.599 4.128 1.31.537 3.476-.193 4.906-1.006 1.352-.768 2.409-2.251 3.29-3.618 1.878-2.912 3.558-5.953 5.096-8.563 1.107 1.926 1.724 4.624 3.22 5.263 3.053 1.303 5.502-.45 6.977-3.48.869-1.786 2.014-3.437 2.568-4.365 1.342 2.973 1.921 7.425 4.25 8.715 4.069 2.254 5.73-2.424 7.936-6.129 0 2.22-.018 3.508.003 4.797.068 4.08 3.182 6.719 6.991 5.577 1.62-.486 3.269-1.62 4.381-2.91 3.563-4.131 6.88-8.474 9.543-11.799.307 4.629.97 10.053.913 15.47-.033 3.221 1.694 5.103 4.026 5.084 2.276-.018 5.683-1.295 6.614-3.062 5.127-9.73 9.648-19.78 14.463-29.904-5.077-1.889-5.809.932-7 3.815-3.398 8.231-7.083 16.344-10.817 24.873-1.18-1.112-1.831-1.439-1.831-1.766-.006-11.797-.977-23.563 7.157-33.947 4.879-6.228 8.223-13.692 11.977-20.75 1.357-2.552 1.075-5.24-1.845-7.079-2.936-1.848-5.186-1.064-7.344 1.313-6.953 7.661-9.979 17.118-12.199 26.884-2.748 12.092-10.423 20.925-19.032 30.676 0-3.15.024-4.952-.005-6.752-.064-4.086-.084-7.956 5.223-9.21 1.745-.411 3.584-1.88 4.654-3.383 2.002-2.81 5.114-6.215 2.165-9.48-1.443-1.599-6.066-2.293-7.852-1.172-2.982 1.874-5.145 5.345-7.102 8.486-2.712 4.354-4.915 9.026-7.336 13.561-.25-4.198.547-8.036.637-11.89.045-1.916-1.206-3.861-1.871-5.793-1.395 1.02-3.227 1.758-4.101 3.113-2.395 3.713-4.386 7.685-6.538 11.554l-1.045-.336 2.387-16.314-1.576-.967c-1.443 1.352-3.29 2.464-4.261 4.097-4.41 7.414-8.573 14.975-13.121 22.033-.114-.139-.227-.278-.264-1.26.128-1.298.116-2.628.407-3.888 1.63-7.054 3.45-14.066 4.893-21.156.246-1.206-.685-3.202-1.712-3.931-.753-.534-2.926-.005-3.804.785-1.526 1.373-2.705 3.221-3.74 5.035-2.82 4.95-5.489 9.986-8.548 15.592-1.752-6.414 4.175-12.094-.864-18.746-4.798 10.702-9.927 20.001-17.623 27.47l-1.705-.773 9.287-29.046-2.124-1.161-7.291 8.259c-6.276-5.646-10.684-5.18-15.443 2.326-2.058 3.247-3.529 6.863-5.335 10.274-2.105 3.973-4.285 7.906-6.432 11.857 1.475-10.102 3.55-19.824 6.359-29.33.814-2.757.295-4.495-1.67-5.16-1.371-.463-3.922.412-4.985 1.57-3.674 4.01-6.928 8.404-9.937 12.149-.799-1.63-1.322-4.595-2.597-4.965-5.131-1.487-4.472 5.041-8.097 6.62.38-3.264.774-6.252 1.044-9.25.07-.763-.256-1.56-.4-2.342-1.037.219-2.316.14-3.046.736-.8.653-1.102 1.924-1.607 2.932-4.146 8.274-8.29 16.55-12.753 24.392-.118-.136-.236-.27-.277-1.246.595-2.832 1.141-5.674 1.794-8.492 1.375-5.94 2.973-11.835 4.089-17.822.266-1.427-1.006-3.141-1.57-4.723-1.573.633-3.589.852-4.64 1.975-3.729 3.98-7.128 8.27-9.977 11.641l-3.15-4.538-7.536 5.753 1.214-10.37c-3.916-.336-3.98-.355-5.191 3.675-4.141 13.78-13.131 23.841-25.079 31.118-5.209 3.172-7.146 2.782-7.872-4.499-.734-7.353 1.671-14.197 5.861-20.05 4.103-5.73 9.093-10.826 14.364-16.985-1.813 0-3.312-.246-4.699.045-4.43.932-5.705-.066-5.602-4.7.121-5.46 6.924-15.135 12.219-16.703 1.603-.475 3.981.005 5.339.977.82.587.38 2.963.46 4.537.05.956.01 1.916.01 2.944 4.18-.759 5.852-3.462 4.561-6.813-1.369-3.554-7.866-7.12-11.767-5.967-7.335 2.168-13.004 6.566-16.111 13.75-2.372 5.483-.684 11.617 4.013 14.959-6.654 6.013-11.333 13.31-13.88 21.871-.91 3.058-1.371 6.27-1.814 9.441-.643 4.602.58 8.575 4.933 10.852 4.515 2.361 9.176 1.433 12.853-1.439 6.652-5.195 12.822-11.008 19.306-16.661 3.88 3.333 3.883 3.334 7.455-1.943 1.034-1.528 2.05-3.068 2.535-3.795l3.854 5.846c1.764-1.545 3.796-2.877 5.227-4.685 1.976-2.497 3.5-5.353 5.536-7.62m126.759-424.688c-5.508-2.714-10.952-5.57-16.56-8.06-1.785-.794-4.19-1.21-5.951-.655-1.028.323-1.742 2.875-1.892 4.49-.29 3.139 0 6.326-.101 9.488-.315 9.782 7.773 15.736 14.817 18.714 4.388 1.854 8.903 3.449 13.16 5.564 8.154 4.05 13.022 11.294 17.901 18.626 1.095 1.645 4.168 2.208 6.452 2.685.68.142 2.625-1.778 2.553-2.631-.87-10.208 1.612-20.4-2.526-30.738-3.89-9.718-9.766-17.213-17.584-23.406-10.654-8.44-21.467-16.541-29.847-27.524-9.495-12.443-13.088-26.961-15.74-41.822-.521-2.924 1.683-6.235 1.72-9.378.097-8.086 2.168-15.633 6.193-22.447 4.51-7.635 9.281-15.22 14.824-22.114 5.94-7.387 14.22-11.972 22.739-16.133 7.997-3.907 16.086-7.355 25.053-7.519 4.293-.078 4.315-2.216 4.372-5.356.058-3.216-.559-5.066-4.356-4.808-8.61.584-16.608 3.01-24.867 5.591-11.616 3.633-20.659 10.388-28.938 18.317-9.348 8.952-15.876 19.896-20.237 32.375-3.047 8.719-5.043 17.268-4.7 26.443.16 4.277.027 8.564.027 12.977-4.392-2.413-6.089-2.053-9.909.664-7.364 5.238-11.572 12.934-15.964 20.39-1.803 3.062-1.558 7.313-3.305 10.427-4.034 7.188-2.266 14.927-1.328 21.907.968 7.197 5.504 13.916 8.485 20.84 3.17 7.365 3.858 7.75 11.716 6.67.44-2.395.783-4.794 1.334-7.144 1.274-5.446 1.266-11.253 5.093-15.955 5.178-6.362 9.18-13.275 7.835-21.964-.388-2.51-1.396-4.917-1.934-7.411-1.699-7.872-7.44-9.615-13.84-4.108-4.37 3.76-5.44 9.213-7.163 14.316-.151.448-.129 1.022-.002 1.487.707 2.605.892 5.672 2.467 7.58.761.924 4.172-.34 6.533-.63l-7.67 13.249c-3.77-9.854-5.463-20.306-.829-31.114 4.227-9.856 11.686-16.623 19.205-23.243 1.529 4.844 2.59 8.871 4.076 12.734 1.496 3.885 3.51 7.566 5.13 11.407 5.53 13.11 15.82 21.948 26.782 30.253 2.671 2.023 4.959 4.55 7.484 6.78 0 0 .075-.081-.708.186m199.077 32.023c-4.036 2.393-8.735 4.13-11.933 7.355-3.543 3.573-6.692 8.777-3.365 13.906 2.868 4.422 7.202 7.899 10.93 11.753 1.597 1.65 5.053 2.169 2.982 5.164-3.049 1.603-7.31 3.328-7.81 5.81-.938 4.649.468 9.733.587 14.643.1 4.092-.148 8.201-.422 12.291-.34 5.069-3.801 6.576-8.157 8.32-5.698 2.282-11.372 3.106-17.207 2.612-4.772-.405-9.418-2.128-14.186-2.78-4.873-.667-9.825-.987-14.746-1.024-9.314-.07-18.452.428-27.737 2.614-9.511 2.24-18.17 5.42-25.716 11.407-8.3 6.584-15.047 14.54-18.928 24.548-3.744 9.653-6.846 19.475-5.66 30.129h14.832c0-3.383-.79-6.786.16-9.601 2.148-6.367 5.405-12.351 7.753-18.662 3.371-9.062 10.71-14.806 18.63-18.084 8.985-3.719 19.172-4.77 28.95-6.21 3.6-.53 7.503 1.546 11.302 1.73 11.24.548 22.502.639 33.747 1.114 7.452.316 13.7-2.172 20.234-5.782 14.711-8.126 16.918-24.929 12.174-38.798 5.47-4.902 11.979-9.89 9.863-18.494-1.891-7.688-8.523-11.844-15.987-16.468 1.177-.591 1.92-.95 2.65-1.334 4.813-2.53 9.779-4.813 14.392-7.666 5.296-3.276 8.36-8.08 8.125-14.624-.124-3.48-.022-6.969-.022-10.66 10.124-1.494 17.42-7.922 24.791-13.824 2.908-2.329 5.208-6.473 6.017-10.176 2.681-12.279-4.932-20.265-12.93-27.872-4.634-4.408-9.981-8.318-13.648-13.428-4.572-6.372-8.17-13.558-11.408-20.743-3.69-8.19-7.31-16.411-6.946-25.93.497-12.98.455-26.006-.028-38.988-.213-5.718-1.61-11.524-3.338-17.016-1.56-4.955-4.519-9.451-6.487-14.301-4.16-10.252-10.365-19.211-17.376-27.606-4.798-5.744-9.87-11.318-15.3-16.462-8.208-7.774-16.7-15.116-25.959-21.837-8.607-6.247-18.128-10.1-27.139-15.152-5.527-3.1-11.758-5.104-17.865-6.974-10.94-3.349-21.762-7.3-33.537-6.96-9.825.283-19.68.4-29.494-.028-12.57-.549-24.432 2.794-36.168 6.28-8.07 2.397-15.857 6.053-23.387 9.896-9.636 4.916-19.693 9.566-28.093 16.199-9.82 7.753-18.212 17.366-26.928 26.455-9.289 9.687-17.35 20.286-22.234 33-.957 2.493-2.404 4.793-3.457 7.254-2.417 5.643-5.15 11.2-6.96 17.04-1.609 5.19-1.578 10.902-3.28 16.05-3.299 9.976-4.868 20.112-4.849 30.56.014 7.666-.099 15.335.05 22.998.065 3.413.448 6.848 1.014 10.218 1.2 7.152 2.548 14.28 3.962 21.393 1.124 5.659 2.025 11.41 3.763 16.887 2.363 7.442 5.44 14.657 8.188 21.977 1.451 3.864 2.776 7.777 4.3 11.611 1.48 3.722 3.465 7.271 4.633 11.079 1.175 3.83 1.795 7.861 2.346 11.848 1.664 12.048 3.806 24.078 4.572 36.191.788 12.45.175 24.989.174 37.488 0 1.167.095 2.346-.036 3.498-1.3 11.478-2.77 22.938-3.92 34.43-.883 8.816-1.171 17.691-2.092 26.502-1.186 11.359.325 13.268 11.47 12.058 1.656-.18 4.06-2.477 4.407-4.149 1.614-7.78 1.474-15.764 2.764-23.699 2.412-14.835 3.307-30.071 3.181-45.127-.159-18.934 1.589-37.86-1.416-56.883-1.865-11.806-1.53-23.915-6.286-35.25-2.282-5.44-4.075-11.088-6.022-16.665-3.812-10.917-7.652-21.825-11.342-32.783-5.828-17.302-7.437-35.184-7.84-53.346-.307-13.873 1.624-27.423 4.302-40.867 1.261-6.33 4.123-12.387 6.632-18.413 3.717-8.924 7.008-18.16 11.898-26.423 4.425-7.475 11.167-13.538 16.134-20.743 6.577-9.544 16.037-15.788 24.964-22.44 8.724-6.5 18.354-11.98 28.132-16.804 7.38-3.641 15.45-6.348 23.515-8.015 10.464-2.162 21.192-3.403 31.867-4.093 15.07-.973 29.8.946 44.41 5.503 5.435 1.695 10.897 3.269 16.331 5.19 16.625 5.881 30.044 17 44.317 26.596 6.716 4.515 12.036 11.263 17.513 17.422 5.344 6.01 10.296 12.402 15.035 18.907 7.45 10.228 12.356 21.956 14.728 34.107 2.034 10.418 2.142 21.549 1.033 32.147-1.084 10.362.546 20.014 2.698 29.852.452 2.063-.108 4.513.788 6.284 3.913 7.731 7.356 15.91 12.537 22.74 7.265 9.575 15.758 18.25 24.046 27.007 4.458 4.71 5.605 7.984 2.143 12.55-1.395 1.84-3.835 3.337-6.09 3.99-6.28 1.822-11.3 6.46-18.391 6.787-8.215.38-10.76 4.964-8.784 12.843.453 1.806 1.847 3.416 2.964 5.006 2.3 3.277 1.907 6.865-1.224 8.792-1.915 1.18-3.985 2.108-6.8 3.153M267 651.659v138.595h-35.67v10.003h35.908v175.43H277V800h142.478c24.158 0 48.317-.095 72.474.092 4.113.032 5.001-1.732 5.091-5.213.11-4.27-2.06-4.956-5.835-4.951-69.642.098-139.284.072-208.927.072H277V648.001c-3.024 0-5.395-.247-7.666.123-.894.146-1.563 1.67-2.334 3.535m358.01-318.153c-1.536-3.784-3.859-6.849-8.396-5.396-3.697 1.184-3.402 4.744-3.715 8.035-.535 5.63-1.93 10.911-5.76 15.625-6.988 8.598-8.776 18.593-6.171 29.425 1.62 6.739 7.287 9.054 12.968 4.77 8.039-6.06 8.969-14.586 7.79-23.517-10.481-3.398-7.796 6.517-11.464 11.887-1.178-11.896 10.022-16.653 11.426-25.979 1.5 4.705 2.118 9.499 3.55 14.036 2.488 7.89-1.017 14.873-3.959 21.304-2.637 5.768-7.97 10.354-12.368 15.234-1.271 1.412-3.414 2.038-5.157 3.024-.585-1.776-1.136-3.564-1.762-5.325-1.324-3.724-2.322-7.62-4.119-11.103-2.653-5.143-5.64-10.157-8.943-14.907-2.93-4.213-6.229-8.242-9.825-11.899-4.732-4.811-9.914-9.18-14.903-13.738 4.35 1.485 8.503 3.282 12.552 5.29 4.344 2.154 8.168.621 9.083-4.036.379-1.927.343-4.001.125-5.968-.98-8.837-3.69-16.627-12.693-20.603-5.511-2.434-11.202-4.64-16.302-7.778-5.124-3.153-10.663-6.057-13.586-11.979-4.752-9.626-5.741-10.03-14.382-7.4 0 5.898-.646 11.972.189 17.834.773 5.429 3.676 10.534 4.646 15.96 1.083 6.054 5.074 10.37 8.727 14.21 7.12 7.483 15.559 13.706 23.409 20.5 4.04 3.496 8.587 6.63 11.823 10.773 3.83 4.904 6.692 10.615 9.615 16.165 4.202 7.98 7.384 16.4 7.525 25.54.132 8.636.898 17.404-2.92 25.638-3.211 6.924-5.651 14.31-9.637 20.745-4.596 7.421-10.595 13.781-17.716 19.264-7.455 5.739-15.185 10.43-24.239 12.849-5.414 1.446-10.832 3.246-16.357 3.793-4.38.434-4.098 2.72-4.092 5.668.008 3.772 2.73 3.442 5.125 3.539 9.076.365 17.372-2.004 25.703-5.751 12.558-5.649 23.41-12.695 32.646-23.363 6.545-7.56 11.394-15.704 15.392-24.432 4.166-9.095 6.331-18.922 6.172-29.096-.064-4.093-.01-8.187-.01-11.845 2.884-.538 5.39-.42 7.254-1.454 8.048-4.465 13.454-11.742 17.546-19.564 3.87-7.398 6.516-15.552 5.204-24.304-.694-4.632-.76-9.452-2.144-13.862-1.866-5.946-4.73-11.58-7.85-17.809M470.455 472.05c5.38 3.726 10.477 7.978 16.206 11.051 8.222 4.41 17.087 6.958 26.693 6.012 1.551-.153 3.287 1.797 4.872 1.7 2.826-.171 5.588-1.238 8.404-1.797 5.323-1.057 10.935-1.294 15.948-3.158 14.518-5.398 26.58-13.803 35.064-27.51 6.058-9.786 10.274-19.91 11.227-31.142 1.154-13.594-.475-26.917-5.932-39.717-3.41-7.998-8.703-14.91-14.881-20.16-10.366-8.805-21.712-17.487-35.992-18.591-11.1-.859-22.865-1.777-33.405.937-13.937 3.589-25.962 11.845-35.863 23.164-7.532 8.612-12.285 18.395-14.475 29.024-1.874 9.09-1.087 18.75-1.256 28.161-.05 2.735.119 5.707 1.135 8.18 2.5 6.088 4.999 12.305 8.534 17.802 3.685 5.73 8.585 10.677 13.72 16.044m274.579 436.719c-1.523 4.308.163 10.088-5.08 12.683-12.445 6.158-18.93 16.598-21.908 29.65-.947 4.153 1.567 9.783 4.748 11.197 4.509 2.004 7.68.425 11.577-3.948 7.41-8.314 10.366-18.532 12.393-28.889 1.233-6.299 3.799-9.59 9.978-10.574 1.327-.211 2.451-1.697 3.669-2.595l-.93-1.604-9.886 2.25c1.792-5.996 3.513-11.589 5.128-17.212 1.378-4.798 4.414-6.415 9.425-6.97 4.95-.55 9.794-2.817 14.447-4.868 1.518-.67 3.229-3.083 3.14-4.599-.088-1.488-2.085-3.412-3.7-4.17-7.342-3.445-19.57 3.41-23.062 7.541-1.204 1.425-3.035 2.993-4.738 3.202-5.669.695-11.478.38-17.1 1.28-3.992.64-7.93 2.303-11.56 4.156-1.336.682-2.582 3.377-2.31 4.87.293 1.597 2.422 2.859 3.75 4.267-1.516-8.668 12.968-11.873 26.908-10.014-1.496 4.553-2.984 9.084-4.889 14.347m-112.765 22.398c3.46-4.011 6.02-8.362 5.752-13.945-.233-4.84-3.202-6.697-7.532-4.237-1.981 1.126-3.495 3.074-5.708 5.093 1.18-6.156 2.396-11.775 3.26-17.448.273-1.787-.396-3.717-.634-5.581-1.465 1.41-3.69 2.567-4.261 4.277-2.162 6.462-3.788 13.104-5.589 19.587h-16.293l7.924-14.284-.885-1.045c-1.421.969-3.73 1.684-4.093 2.955-.998 3.506-4.06 4.754-6.226 6.97-6.462 6.613-7.655 14.865-6.848 23.526.34 3.651 5.958 7.568 10.105 7.99 3.803.388 6.16-1.64 6.945-4.859.797-3.265.98-6.8.72-10.163-.206-2.673-1.484-5.264-2.211-7.645h9.604l-6.044 37.191c4.71 1.132 6.137-.151 6.853-3.71 1.661-8.263 3.891-16.412 5.756-24.055 3.78 0 6.33 0 9.405-.617M611 762.492v13.253h7.032v-14.11c3.542.28 7.008 1.366 10.03.63 7.51-1.827 12.7-12.208 10.624-20.016-2.69-10.127-5.945-13.156-14.241-12.101-2.767.352-5.316 2.425-8.319 3.883-.805-.929-1.498-2.415-2.59-2.815-1.41-.516-3.138-.165-4.73-.188.122 1.218.113 2.466.393 3.646.51 2.15 1.645 4.246 1.717 6.391.227 6.804.084 13.62.084 21.427m-308.629-36.404c7.255-9.85 16.168-6.696 25.246-2.886l.999-5.622c-6.609-1.812-13.156-2.423-19.793-.896-11.436 2.63-17.865 10.225-18.577 21.567-.45 7.149 1.173 14.07 8.168 19.03 8.05 5.708 16.659 5.066 25.386 4.238 2.946-.28 8.006-.306 5.865-6.287-1.531.757-3.07 1.642-4.7 2.303-9.629 3.903-19.146.41-22.82-5.435-5.132-8.165-5.02-16.903.226-26.012m142.722 33.527c6.532 3.459 13.188 4.035 19.228-.622 5.536-4.267 7.503-10.066 5.77-17.179-1.68-6.892-5.084-11.28-10.097-11.813-9.52-1.012-15.566 1.874-18.511 9.018-2.99 7.252-1.682 13.918 3.61 20.596m-67.347-28.824a1122 1122 0 0 1-4.826 3.169c-5.83-4.807-5.83-4.807-8.615-1.175 5.502 9 1.017 18.974 3.117 27.906H374c0-6.953-.006-13.6.003-20.246.005-3.865 2.924-5.055 5.823-5.324 3.43-.32 4.241 2.24 4.202 5.28-.089 6.778-.028 13.558-.028 20.358h7c0-8.037.118-15.84-.099-23.634-.044-1.605-1.132-3.319-2.101-4.734-2.738-4-6.868-2.051-11.054-1.6m397.02 1.23c-6.587 3.773-9.107 11.504-6.753 20.709 1.528 5.976 6.723 9.296 14.506 9.27 6.427-.021 12.393-4.142 14.463-9.991 2.26-6.387.572-15.409-3.572-19.08-4.033-3.574-12.361-4.043-18.645-.908m-84.773 20.74c-1.81 3.04-3.937 6.382-7.934 5.062-3.884-1.282-3.033-5.308-3.049-8.524-.031-6.42-.009-12.84-.009-19.13h-6.996c0 7.45-.386 14.766.103 22.023.543 8.052 4.05 10.844 11.166 9.743 1.685-.26 3.619-.902 4.793-2.036 2.013-1.943 3.736-1.176 5.13.179 2.467 2.396 4.442 1.794 6.515-.363-6.446-9.109-2.398-19.693-4.047-29.479H690c0 7.37 0 14.507-.007 22.524M510 737.503c0-4.159-.017-8.317.004-12.476.026-4.971 1.184-5.843 5.88-4.623 2.555.663 5.144 1.196 7.892 1.829v-6.03H489.18v5.91l13.82-2.542V760.7h7zM707.56 844.05c3.08 5.329 4.906 5.488 8.169.73 1.932-2.82 3.884-5.627 6.45-9.34v19.304h4.617v-29.346c-9.217 2.19-9.085 12.053-14.955 16.675-2.182-3.114-4.32-6.27-6.568-9.345-2.074-2.837-2.69-7.637-8.016-6.532v28.548h4.872v-18.486c2.077 3.088 3.48 5.175 5.43 7.792m-360.912-87.048c-6.502-2.612-8.016-5.06-7.196-12.032h20.304c.038-6.509-3.805-13.758-7.734-14.93-4.828-1.44-14.218 1.16-16.573 5.099-3.85 6.44-4.98 13.348-1.265 20.272 3.7 6.898 10.356 7.25 16.927 6.428 2.815-.353 6.771-.953 6.9-4.79-3.85 0-7.201 0-11.363-.047m294.374-6.996c.737 1.913 1.2 3.998 2.26 5.71 4.06 6.548 16.373 8.705 22.364 3.923.83-.662.988-2.165 1.697-3.849-14.242 3.34-18.493.973-20.24-10.867h20.721c.759-6.11-.443-11.172-5.833-13.828-4.997-2.463-10.431-1.887-14.829 1.4-5.408 4.04-6.878 10.052-6.14 17.51M549.31 745l3.581-.347c1.011-9.813-4.644-16.314-15.374-14.64-6.863 1.07-11.546 7.953-11.51 16.935.022 5.412 1.067 10.227 6.443 13.186 6.048 3.33 11.911 2.261 17.72-.261.967-.42 1.34-2.212 2.37-4.053-14.925 3.197-20.896-.215-20.103-10.82zm32.4-12.97c-.61 1.175-1.218 2.35-2.271 4.386 11.526-4.12 17.813-3.378 16.096 7.872-4.36 1.285-8.586 2.255-12.599 3.785-4.506 1.718-4.999 6.137-3.617 9.542.848 2.09 4.689 4.096 7.192 4.104 3.27.01 6.547-1.992 10.15-3.243 5.244 4.447 5.244 4.447 7.437 1.489-.833-4.009-1.765-7.03-2.023-10.108-.318-3.803.112-7.666-.127-11.48-.261-4.154-1.85-8.082-6.549-8.21-4.27-.116-8.577 1.127-13.69 1.862m14.257 167.194 1.304-10.994-1.85-.915c-1.139 1.409-2.917 2.656-3.319 4.25-4.116 16.327-8.19 32.67-11.827 49.108-.825 3.73-1.835 8.624 2.584 11.118 3.754 2.118 11.943-.219 14.618-4.07-3.278.67-5.854 1.508-8.452 1.585-1.173.035-3.116-1.238-3.418-2.288-.452-1.577.074-3.516.459-5.239 3.118-13.942 6.301-27.87 9.901-42.555m181.912-50.854c3.128 6.283 8.686 8.157 15.056 7.532 5.634-.552 10.086-3.449 12.036-9.129 2.18-6.347 1.176-11.998-3.624-16.998-4.549-4.739-14.654-5.036-20.2-.893-4.375 3.268-6.996 11.812-3.268 19.488m-183.835-21.533v20.24c-4.768-6.853-8.528-12.562-12.65-17.997-1.26-1.662-3.512-2.572-6.21-4.453v30.019h5.12v-18.44c6.261 6.083 8.193 15.655 17.696 19.624 0-9.84-.143-18.312.078-26.774.076-2.952-1.143-3.372-4.034-2.22m230.73-.585h-13.49v28.813l4.82-.28v-9.395c5.591-2.1 6.982 2.452 8.74 5.402 1.936 3.253 3.797 5.267 7.967 3.771l-6.129-9.9c4.692-2.11 6.913-5.742 6.156-10.253-.639-3.81-2.575-7.418-8.065-8.158M460 834.544c0 5.823.161 11.653-.06 17.468-.133 3.459 1.495 3.272 4.17 2.626v-9.284c4.109-1.259 6.088.547 7.98 3.685 3.834 6.353 4.031 6.234 9.662 5.482-1.264-1.766-2.493-3.456-3.693-5.168-1.709-2.437-2.752-4.128.606-6.854 5.165-4.19 2.845-13.754-3.597-15.371-4.772-1.198-9.886-1.034-15.068-1.496zM378.274 826h-9.1v28.964l4.07-.295v-9.355c3.985-1.29 5.986.52 7.797 3.44 2.14 3.448 3.85 8.028 9.725 5.884-1.672-2.451-3.515-4.887-5.014-7.519-.426-.747-.228-2.685.327-3.024 4.784-2.923 4.747-7.593 3.524-11.796-1.363-4.686-5.569-6.445-11.33-6.299m293.758 23.361c2.375 2.687 3.557 7.471 9.18 5.024l-6.166-9.35c5.48-2.209 6.61-6.605 5.894-11.625-.69-4.828-4.751-6.492-8.694-7.153-3.953-.663-8.103-.146-12.096-.146v28.844l4.002-.207v-11.439c3.325 2.252 5.568 3.771 7.88 6.052m-52.24 6.377c3.614-1.426 6.624-2.979 6.334-7.923-.254-4.321-2.365-6.454-6.027-7.847-3.883-1.477-7.714-3.09-11.958-4.8 4.945-6.138 10.142-6.8 12.23-1.991 1.446 3.333 3.045 2.9 5.418 2.644-.046-6.865-3.502-9.742-11.147-9.856-4.493-.068-8.408 1.038-9.537 5.756-1.35 5.646.746 8.151 6.907 10.348 3.513 1.253 6.86 2.969 10.421 4.537-3.44 5.779-11.152 6.6-12.977 1.866-1.536-3.984-3.35-2.034-5.496-2.14 2.151 8.392 4.28 9.71 15.831 9.406m-214.127-130.85c-3.486.936-4.485 6.18-9.06 5.231.079.945.198 2.72.23 2.719 5.893-.29 3.97 4.131 4.112 7.022.212 4.32.036 8.656.059 12.986.046 8.703 3.927 11.336 12.368 8.308.975-.35 1.743-1.276 2.607-1.934-1.064-.384-2.412-1.384-3.144-1.047-3.552 1.635-4.636-.766-4.734-3.173-.282-6.927-.1-13.872-.1-19.983 2.564-2.643 8.178 1.85 7.99-5.12h-6.746c-1.276-2.351-2.162-3.986-3.582-5.01m304.012 36.23c6.421 2.046 9.677 1.34 12.53-3.12-1.57.152-2.869.09-4.052.431-2.55.736-4.095.004-4.125-2.72-.08-7.112-.027-14.226-.027-21.703h7.989l-.348-4.284h-7.537l-.288-5.58c-4.933.297-5.918 6.97-11.171 5.998-.1-.018-.634 1.116-.549 1.646.073.449.773 1.164 1.154 1.138 4.273-.287 3.766 2.67 3.754 5.344-.018 4.158-.264 8.337.077 12.467.272 3.304 1.274 6.548 2.593 10.384m-166.14 81.86c5.148-7.25 3.298-13.725-5.075-15.957-4.246-1.132-8.852-.914-13.196-1.298v29.018h4.845v-7.526c4.685-1.334 8.77-2.498 13.427-4.237m200.969-108.98c-1.428 2.81-3.634 5.485-4.144 8.453-1.867 10.857 2.008 20.904 16.442 19.551 4.055-.38 6.82-2.85 6.533-6.322-5.932 2.728-11.44 3.326-15.374-3.22-2.94-4.893-2.47-11.955 1.803-16.632 4.491-4.916 8.584.234 14.483 1.529-1.523-3.053-2.263-6.574-3.572-6.8-5.388-.931-11.148-1.854-16.171 3.44M734 845.467v9.303h18.78v-3.824h-13.575v-7.953h11.79l-.362-4.277h-11.291v-7.96H752.1l-.343-4.459H734zm-327.273-19.408v28.583h4.564V846c2.72 0 5.066.199 7.367-.043 4.124-.433 7.407-2.448 8.267-6.685 1.252-6.17-.78-10.859-5.627-12.008-4.39-1.04-9.064-.886-14.571-1.204m48.317 26.395-10.773-27.01c-1.525.751-3.9 1.122-4.42 2.307-3.874 8.83-7.381 17.82-11.004 26.762l1.252 1.275c1.569-1.086 4.228-1.959 4.492-3.302.677-3.448 2.628-3.622 5.31-3.513 2.955.12 5.92.027 8.57.027.965 1.83 1.518 3.44 2.55 4.636.662.768 2.01 1.16 3.09 1.25.437.037.98-1.176.933-2.432m34.994-12.86-6.044 14.97c5.63 2.227 5.613-2.763 7.57-5.564 3.161 0 6.509-.264 9.776.13 1.315.159 3.114 1.53 3.547 2.755 1.156 3.266 3.1 3.738 6.443 2.553-3.789-9.162-7.502-18.305-11.52-27.313-.175-.393-4.113-.091-4.619.82-1.924 3.467-3.16 7.318-5.153 11.65m158.407-2.636c-.826-2.418-1.378-4.984-2.575-7.202-.813-1.505-2.532-2.52-3.846-3.754-1.058 1.174-2.512 2.176-3.11 3.55-3.634 8.352-7.073 16.788-10.61 25.277h5.508c.331-4.52 2.543-6.55 7.067-5.87 1.625.245 3.405-.285 4.953.134 1.464.397 3.756 1.444 3.882 2.435.557 4.37 3.21 3.566 6.186 3.223-2.386-5.909-4.663-11.547-7.455-17.793M551 834.544v20.212h17.76v-3.841h-13.536v-7.952h12.797l-.42-4.282h-12.428v-7.636h13.494v-4.731H551zm225.722 79.486-11.613 14.347c.005-.027.265-1.198.41-2.383.515-4.205 1.207-8.407 1.347-12.626.042-1.256-1.507-2.565-2.327-3.85l-1.887.6c-1.55 9.037-3.254 18.052-4.493 27.13-.195 1.424 1.453 4.091 2.734 4.45 1.339.376 3.792-.932 4.81-2.241 1.531-1.968 2.235-4.58 3.296-6.915 2.774-6.102 4.985-12.578 11.508-16.772-1.22-.712-2.122-1.239-3.785-1.74m-432.761-75.61-3.98 9.724c-2.778-7.147-5.111-13.09-7.395-19.052-1.04-2.715-2.632-4.007-6.035-2.357 3.172 7.943 6.535 15.716 9.345 23.685 1.331 3.777 2.967 5.644 6.738 4.273l10.826-27.887c-3.53-1.856-5.031-.232-6.067 2.344-1.134 2.818-2.24 5.648-3.432 9.27m-44.41 5.616c-1.86-4.758-3.743-9.508-5.574-14.277-1.366-3.555-2.222-4-6.31-2.787 3.12 7.896 6.406 15.7 9.256 23.66 1.27 3.544 2.928 5.318 6.717 4.075l11.128-28.79c-7.63-.177-6.744 5.976-8.62 9.304-2.099 3.72-3.18 8.013-4.704 12.057l-1.092-.287c-.128-.754-.256-1.509-.801-2.955m121.897-113.932v30.647H428c0-5.703.322-11.186-.098-16.612-.358-4.613 1.408-7.114 5.685-8.255 1.484-.396 2.922-.967 4.482-1.493l-.348-6.476-10.517 6.439c-.483-2.362-.996-5.21-5.756-4.25m143.488 1.371-4.706-1.946v31.251H566v-15.577c0-7.042.588-7.87 7.296-9.893 1.195-.361 2.466-.471 3.967-.746l-2.032-6.422-10.136 6.324c-.028-.624-.064-1.403-.16-2.991m163.113 28.712 5.694.951v-30.89h-5.739c0 9.824 0 19.404.045 29.94M766 835.519q.002 4.989-.001 9.978c-.004 3.534-1.827 5.34-5.307 5.492-1.45.063-2.906.01-4.71.01l.377 4.001c1.393 0 2.405-.117 3.382.018 8.564 1.19 10.762-4.342 11.188-11.15.343-5.467.07-10.972.03-16.46-.002-.45-.3-.897-.507-1.474l-4.452.307zm-409 6.972v12.285h4.834v-28.454H357zm-34 1.983v-18.252h-4.834v28.455H323zm336.97-126.13-8.305 8.79.902 1.142c6.494-1.087 10.149-6.938 16.364-10.023l-5.449-4.926c-1.204 1.498-2.326 2.894-3.512 5.016M249.146 934.028c-3.411-.746-5.713.91-5.933 4.035-.12 1.72 1.32 4.37 2.81 5.133 1.292.661 5.239-.7 5.253-1.244.069-2.51-.826-5.047-2.13-7.924m483.12-216.026c-2.626-.347-5.191.132-5.068 3.223.062 1.552 1.782 3.47 3.27 4.354.763.454 3.78-.914 3.833-1.604.145-1.942-.72-3.959-2.035-5.973M211.23 906.031c-3.613.047-3.089 2.616-2.193 4.46.518 1.064 2.513 1.41 3.844 2.08.023-1.7.106-3.404.022-5.1-.018-.37-.634-.709-1.673-1.44m654.826.51c-.691 2.684-.998 5.324 2.468 6.198.64.16 2.242-.957 2.344-1.642.454-3.054-.784-5.052-4.812-4.556"/><path fill="#fff" d="M673.972 528c2.408-1.043 4.478-1.971 6.393-3.15 3.13-1.928 3.525-5.516 1.224-8.793-1.117-1.59-2.511-3.2-2.964-5.006-1.975-7.88.57-12.464 8.784-12.843 7.09-.328 12.11-4.965 18.392-6.787 2.254-.653 4.694-2.15 6.089-3.99 3.462-4.566 2.315-7.84-2.143-12.55-8.288-8.757-16.781-17.432-24.046-27.008-5.18-6.828-8.624-15.008-12.537-22.74-.896-1.77-.336-4.22-.788-6.283-2.152-9.838-3.782-19.49-2.698-29.852 1.11-10.598 1.001-21.729-1.033-32.147-2.372-12.15-7.277-23.879-14.728-34.107-4.739-6.505-9.691-12.897-15.035-18.907-5.477-6.159-10.797-12.907-17.513-17.422-14.273-9.596-27.692-20.715-44.317-26.595-5.434-1.922-10.896-3.496-16.332-5.191-14.61-4.557-29.338-6.476-44.409-5.503-10.675.69-21.403 1.931-31.867 4.093-8.064 1.667-16.136 4.374-23.515 8.015-9.778 4.823-19.408 10.304-28.132 16.804-8.927 6.652-18.387 12.896-24.964 22.44-4.967 7.205-11.71 13.268-16.134 20.743-4.89 8.264-8.18 17.499-11.898 26.423-2.51 6.026-5.37 12.082-6.632 18.413-2.678 13.444-4.609 26.994-4.301 40.867.402 18.162 2.011 36.044 7.839 53.346 3.69 10.958 7.53 21.866 11.342 32.783 1.947 5.577 3.74 11.225 6.022 16.665 4.757 11.335 4.42 23.444 6.286 35.25 3.005 19.022 1.257 37.949 1.416 56.883.126 15.056-.769 30.292-3.18 45.127-1.29 7.935-1.15 15.919-2.765 23.7-.347 1.671-2.751 3.968-4.406 4.148-11.146 1.21-12.657-.699-11.47-12.058.92-8.81 1.208-17.686 2.09-26.502 1.151-11.492 2.622-22.952 3.921-34.43.13-1.152.036-2.331.036-3.498.001-12.5.614-25.038-.174-37.488-.766-12.113-2.908-24.143-4.572-36.191-.55-3.987-1.17-8.018-2.346-11.848-1.168-3.808-3.153-7.357-4.633-11.079-1.524-3.834-2.849-7.747-4.3-11.611-2.748-7.32-5.825-14.535-8.188-21.977-1.738-5.476-2.639-11.228-3.763-16.887-1.414-7.113-2.762-14.241-3.962-21.393-.566-3.37-.949-6.805-1.015-10.218-.148-7.663-.035-15.332-.049-22.998-.019-10.448 1.55-20.584 4.849-30.56 1.702-5.148 1.671-10.86 3.28-16.05 1.81-5.84 4.543-11.397 6.96-17.04 1.053-2.46 2.5-4.761 3.457-7.253 4.885-12.715 12.945-23.314 22.234-33 8.716-9.09 17.108-18.703 26.928-26.456 8.4-6.633 18.457-11.283 28.093-16.2 7.53-3.842 15.316-7.498 23.387-9.895 11.736-3.486 23.598-6.829 36.168-6.28 9.815.428 19.67.31 29.494.028 11.775-.34 22.597 3.611 33.537 6.96 6.107 1.87 12.338 3.874 17.865 6.974 9.011 5.053 18.532 8.905 27.14 15.152 9.259 6.721 17.75 14.063 25.957 21.837 5.43 5.144 10.503 10.718 15.301 16.462 7.01 8.395 13.215 17.354 17.376 27.606 1.968 4.85 4.927 9.346 6.487 14.301 1.729 5.492 3.125 11.298 3.338 17.016.483 12.982.525 26.008.028 38.989-.364 9.518 3.255 17.74 6.946 25.929 3.238 7.185 6.836 14.37 11.408 20.743 3.667 5.11 9.014 9.02 13.648 13.428 7.998 7.607 15.611 15.593 12.93 27.872-.809 3.703-3.109 7.847-6.017 10.176-7.372 5.902-14.667 12.33-24.79 13.825 0 3.69-.103 7.179.021 10.659.234 6.545-2.83 11.348-8.125 14.624-4.613 2.853-9.58 5.136-14.391 7.666-.73.384-1.474.743-2.651 1.334 7.464 4.624 14.096 8.78 15.987 16.468 2.116 8.604-4.393 13.592-9.863 18.494 4.744 13.87 2.537 30.672-12.174 38.798-6.534 3.61-12.782 6.098-20.234 5.782-11.245-.475-22.507-.566-33.747-1.113-3.8-.185-7.703-2.26-11.302-1.73-9.778 1.439-19.965 2.49-28.95 6.209-7.92 3.278-15.259 9.021-18.63 18.084-2.348 6.31-5.605 12.295-7.753 18.662-.95 2.815-.16 6.218-.16 9.6h-14.831c-1.187-10.653 1.915-20.475 5.66-30.128 3.88-10.007 10.627-17.964 18.927-24.548 7.546-5.986 16.205-9.168 25.716-11.407 9.285-2.186 18.423-2.684 27.737-2.614 4.921.037 9.873.357 14.746 1.024 4.768.652 9.414 2.375 14.186 2.78 5.835.494 11.509-.33 17.207-2.612 4.356-1.744 7.817-3.251 8.157-8.32.274-4.09.521-8.2.422-12.291-.119-4.91-1.525-9.994-.587-14.642.5-2.483 4.761-4.208 7.81-5.81 2.07-2.996-1.385-3.515-2.982-5.165-3.728-3.854-8.062-7.331-10.93-11.753-3.327-5.13-.178-10.333 3.365-13.906 3.198-3.225 7.897-4.962 12.34-7.357M267 651.175c.771-1.38 1.44-2.905 2.334-3.05 2.271-.37 4.642-.124 7.666-.124V790h5.281c69.643 0 139.285.026 208.927-.072 3.775-.005 5.946.68 5.835 4.95-.09 3.482-.978 5.246-5.091 5.214-24.157-.187-48.316-.092-72.474-.092H277v175.688h-9.762V800.257H231.33v-10.003H267z"/><path fill="#fff" d="M625.354 333.737c2.778 5.998 5.641 11.632 7.507 17.578 1.384 4.41 1.45 9.23 2.144 13.862 1.312 8.752-1.334 16.906-5.204 24.304-4.092 7.822-9.498 15.099-17.546 19.564-1.865 1.034-4.37.916-7.255 1.454 0 3.658-.053 7.752.01 11.845.16 10.174-2.005 20.001-6.171 29.096-3.998 8.728-8.847 16.873-15.392 24.432-9.236 10.668-20.088 17.714-32.646 23.363-8.331 3.747-16.627 6.116-25.703 5.75-2.394-.096-5.117.234-5.125-3.538-.006-2.947-.288-5.234 4.092-5.668 5.525-.547 10.943-2.347 16.357-3.793 9.054-2.419 16.784-7.11 24.239-12.85 7.12-5.482 13.12-11.842 17.716-19.263 3.986-6.435 6.426-13.82 9.637-20.745 3.818-8.234 3.052-17.002 2.92-25.639-.14-9.139-3.323-17.559-7.525-25.54-2.923-5.55-5.785-11.26-9.615-16.164-3.236-4.143-7.783-7.277-11.823-10.773-7.85-6.794-16.29-13.017-23.409-20.5-3.653-3.84-7.644-8.156-8.727-14.21-.97-5.426-3.873-10.531-4.646-15.96-.835-5.862-.19-11.936-.19-17.834 8.642-2.63 9.631-2.226 14.383 7.4 2.923 5.922 8.462 8.826 13.586 11.98 5.1 3.137 10.79 5.343 16.302 7.777 9.003 3.976 11.712 11.766 12.693 20.603.218 1.967.254 4.041-.125 5.968-.915 4.657-4.74 6.19-9.083 4.036-4.05-2.008-8.203-3.805-12.552-5.29 4.989 4.558 10.17 8.927 14.903 13.738 3.596 3.657 6.895 7.686 9.825 11.899 3.303 4.75 6.29 9.764 8.943 14.907 1.797 3.482 2.795 7.38 4.119 11.103.626 1.76 1.177 3.55 1.762 5.325 1.743-.986 3.886-1.612 5.157-3.024 4.397-4.88 9.73-9.466 12.368-15.234 2.942-6.431 6.447-13.414 3.958-21.304-1.431-4.537-2.05-9.33-3.55-14.036-1.403 9.326-12.603 14.083-11.425 25.98 3.668-5.371.983-15.286 11.465-11.888 1.178 8.93.248 17.457-7.79 23.517-5.682 4.284-11.35 1.969-12.97-4.77-2.604-10.832-.816-20.827 6.171-29.425 3.831-4.714 5.226-9.994 5.761-15.625.313-3.291.018-6.851 3.715-8.035 4.537-1.453 6.86 1.612 8.739 5.627m-63.083 10.087 1.356.486q.12-.417.244-.833c-.757-.027-1.513-.055-1.912-.844l-3.491-3.184-.95 1.418c1.401.803 2.802 1.607 4.753 2.957m-7.263-5.94 2.74 1.705.699-1.243a35 35 0 0 1-3.222-2.578c.543-2.578.294-6.613 1.794-7.428 3.014-1.637 6.153.359 8.757 2.883 2.268 2.2 5.12 3.8 7.713 5.664l1.146-1.104c-1.626-1.924-2.9-4.445-4.947-5.654-5.118-3.022-10.613-5.397-15.907-8.128-4.186-2.16-8.297-4.461-12.442-6.7l-1.074.787c2.631 4.978 4.974 10.143 8.013 14.858 1.58 2.453 4.39 4.113 6.73 6.938M475.135 495.86c-2.464-2.296-4.752-4.824-7.423-6.847-10.962-8.305-21.251-17.143-26.782-30.253-1.62-3.841-3.634-7.522-5.13-11.407-1.486-3.863-2.547-7.89-4.076-12.734-7.52 6.62-14.978 13.387-19.205 23.243-4.634 10.808-2.941 21.26.83 31.114l7.669-13.25c-2.36.292-5.772 1.555-6.533.632-1.575-1.909-1.76-4.976-2.467-7.58-.127-.466-.15-1.04.002-1.488 1.722-5.103 2.793-10.557 7.162-14.316 6.4-5.507 12.142-3.764 13.84 4.108.539 2.494 1.547 4.901 1.935 7.411 1.346 8.689-2.657 15.602-7.835 21.964-3.827 4.702-3.819 10.51-5.093 15.955-.55 2.35-.893 4.749-1.334 7.145-7.858 1.08-8.546.694-11.716-6.67-2.981-6.925-7.517-13.644-8.485-20.84-.938-6.981-2.706-14.72 1.328-21.908 1.747-3.114 1.502-7.365 3.305-10.426 4.392-7.457 8.6-15.153 15.964-20.391 3.82-2.717 5.517-3.077 9.909-.664 0-4.413.132-8.7-.027-12.977-.343-9.175 1.653-17.724 4.7-26.443 4.36-12.479 10.89-23.423 20.237-32.375 8.28-7.929 17.322-14.684 28.938-18.317 8.259-2.582 16.257-5.007 24.867-5.591 3.797-.258 4.414 1.592 4.356 4.808-.057 3.14-.079 5.278-4.372 5.356-8.967.164-17.056 3.612-25.053 7.519-8.519 4.16-16.8 8.746-22.739 16.133-5.543 6.895-10.313 14.48-14.824 22.114-4.025 6.814-6.096 14.361-6.193 22.447-.037 3.143-2.241 6.454-1.72 9.378 2.652 14.86 6.245 29.38 15.74 41.822 8.38 10.983 19.193 19.084 29.847 27.524 7.818 6.193 13.695 13.688 17.584 23.406 4.138 10.337 1.656 20.53 2.526 30.738.072.853-1.872 2.773-2.553 2.63-2.284-.476-5.357-1.039-6.452-2.684-4.879-7.332-9.747-14.576-17.9-18.626-4.258-2.115-8.773-3.71-13.161-5.564-7.044-2.978-15.132-8.932-14.817-18.714.102-3.162-.19-6.35.101-9.488.15-1.615.864-4.167 1.892-4.49 1.76-.556 4.166-.139 5.952.655 5.607 2.49 11.051 5.346 16.827 8.335 3.51 4.036 7.314 7.593 4.449 14.047-2.065-.11-4.596-.244-7.166-.747-3.191-2.982-6.343-5.594-9.495-8.206 1.424 5.903 1.424 5.903 8.955 9.54 8.09 4.385 15.919 8.48 23.43 12.407-1.396-3.151-2.514-7.646-5.087-11.036-4.424-5.829-9.756-10.97-14.707-16.4m-15.08 4.846.79 1.217c-.054-.568-.107-1.136-.79-1.217m-49.61 432.5c-3.475 3.8-7.157 6.92-13.076 3.46-1.343 2.557-2.697 4.893-3.824 7.334-1.698 3.678-4.382 6.207-8.44 4.844-3.897-1.31-3.588-5.364-2.979-8.445 1.27-6.415 3.186-12.703 4.795-19.053.156-.614.02-1.302-.806-2.346-1.716 3.118-3.139 6.456-5.248 9.28-1.47 1.968-2.265 6.156-5.868 4.484-1.848-.857-2.703-3.857-3.845-5.637-.91 1.442-1.998 4.065-3.884 5.838-1.257 1.182-3.653 1.154-5.539 1.667l-.556-1.458c-2.399 4.337-4.885 8.63-7.166 13.028-1.65 3.183-4.662 3.584-7.121 2.51-1.483-.649-2.943-3.726-2.716-5.494.92-7.157 2.498-14.228 4.186-21.868.395-1.37.438-2.204.537-4.114l-1.485 2.997c-1.717 2.702-3.24 5.558-5.217 8.055-1.431 1.808-3.463 3.14-5.227 4.685l-3.854-5.846c-.485.727-1.501 2.267-2.535 3.795-3.572 5.277-3.574 5.276-7.455 1.943-6.484 5.653-12.654 11.466-19.306 16.661-3.677 2.872-8.338 3.8-12.853 1.439-4.353-2.277-5.576-6.25-4.933-10.852.443-3.172.904-6.383 1.814-9.44 2.547-8.562 7.226-15.859 13.88-21.872-4.697-3.342-6.385-9.476-4.013-14.96 3.107-7.183 8.776-11.581 16.111-13.749 3.9-1.152 10.398 2.413 11.767 5.967 1.29 3.35-.382 6.054-4.561 6.813 0-1.028.04-1.988-.01-2.944-.08-1.574.36-3.95-.46-4.537-1.358-.972-3.736-1.452-5.34-.977-5.294 1.568-12.097 11.244-12.218 16.702-.103 4.635 1.172 5.633 5.602 4.701 1.387-.29 2.886-.045 4.7-.045-5.272 6.159-10.262 11.255-14.365 16.986-4.19 5.852-6.595 12.696-5.861 20.05.726 7.28 2.663 7.67 7.872 4.498 11.948-7.277 20.938-17.337 25.079-31.118 1.211-4.03 1.275-4.01 5.191-3.675l-1.214 10.37 7.537-5.753c1.145 1.65 2.29 3.301 3.15 4.538 2.848-3.372 6.247-7.66 9.976-11.641 1.051-1.123 3.067-1.342 4.64-1.975.564 1.582 1.836 3.296 1.57 4.723-1.116 5.987-2.714 11.882-4.09 17.822-.652 2.818-1.198 5.66-2.145 9.041-.395 1.384-.438 2.218-.537 4.128l1.485-2.997q6.216-12.414 12.434-24.826c.505-1.008.807-2.279 1.607-2.932.73-.595 2.01-.517 3.046-.736.144.782.47 1.58.4 2.341-.27 2.999-.664 5.987-1.044 9.252 3.625-1.58 2.966-8.108 8.097-6.62 1.275.369 1.798 3.334 2.597 4.964 3.01-3.745 6.263-8.14 9.937-12.149 1.063-1.158 3.614-2.033 4.986-1.57 1.964.665 2.483 2.403 1.669 5.16-2.808 9.506-4.884 19.228-6.36 29.33 2.148-3.95 4.328-7.884 6.433-11.857 1.806-3.411 3.277-7.027 5.335-10.274 4.76-7.506 9.167-7.972 15.443-2.326l7.29-8.26 2.125 1.162-9.287 29.046 1.705.772c7.696-7.468 12.825-16.767 17.623-27.469 5.039 6.652-.888 12.332.864 18.746 3.06-5.606 5.728-10.642 8.549-15.592 1.034-1.814 2.213-3.662 3.739-5.035.878-.79 3.051-1.32 3.804-.785 1.027.729 1.958 2.725 1.712 3.93-1.442 7.09-3.264 14.103-4.893 21.157-.291 1.26-.279 2.59-.725 4.406-.36 1.057-.4 1.597-.44 2.137l1.319-.945c4.251-7.508 8.414-15.069 12.824-22.483.97-1.633 2.818-2.745 4.261-4.097l1.576.967-2.387 16.314 1.045.336c2.152-3.869 4.143-7.841 6.538-11.554.874-1.355 2.706-2.093 4.1-3.113.666 1.932 1.917 3.877 1.872 5.792-.09 3.855-.886 7.693-.637 11.891 2.421-4.535 4.624-9.207 7.336-13.56 1.957-3.142 4.12-6.613 7.102-8.487 1.786-1.121 6.409-.427 7.852 1.171 2.95 3.266-.163 6.67-2.165 9.481-1.07 1.503-2.909 2.972-4.654 3.384-5.307 1.253-5.287 5.123-5.223 9.209.029 1.8.005 3.601.005 6.752 8.61-9.751 16.284-18.584 19.032-30.676 2.22-9.766 5.246-19.223 12.2-26.884 2.157-2.377 4.407-3.161 7.343-1.313 2.92 1.839 3.202 4.527 1.845 7.079-3.754 7.058-7.098 14.522-11.977 20.75-8.134 10.384-7.163 22.15-7.157 33.947 0 .327.65.654 1.83 1.766 3.735-8.53 7.42-16.642 10.819-24.873 1.19-2.883 1.922-5.704 6.999-3.815-4.815 10.123-9.336 20.174-14.463 29.904-.93 1.767-4.338 3.044-6.614 3.062-2.332.019-4.06-1.863-4.026-5.084.056-5.417-.606-10.841-.913-15.47-2.662 3.325-5.98 7.668-9.543 11.8-1.112 1.29-2.761 2.423-4.38 2.909-3.81 1.142-6.924-1.498-6.992-5.577-.021-1.289-.003-2.578-.003-4.797-2.206 3.705-3.867 8.383-7.935 6.13-2.33-1.291-2.909-5.743-4.251-8.716-.554.928-1.7 2.579-2.568 4.365-1.475 3.03-3.924 4.783-6.976 3.48-1.497-.64-2.114-3.337-3.221-5.263-1.538 2.61-3.218 5.65-5.096 8.563-.881 1.367-1.938 2.85-3.29 3.618-1.43.813-3.596 1.543-4.906 1.006-1.272-.522-2.757-2.803-2.6-4.128.627-5.265 1.838-10.462 2.88-15.674.298-1.49.76-2.947.57-4.58-2.507 4.078-4.85 8.273-7.606 12.177-1.028 1.456-3.085 3.206-4.557 3.107-2.756-.186-4.001-2.476-3.465-5.408.105-.573-.05-1.192-.112-2.25-1.674 2.315-3.31 4.097-4.39 6.17-2.215 4.246-5.593 6.97-10.23 5.698-4.76-1.304-4.347-5.915-3.923-10.419.36-1.062.4-1.602.44-2.142zm3.523-10.904-3.48-5.825-7.835 15.916 1.566.996c3.12-3.483 6.241-6.967 9.75-11.087m104.986-23.802-3.039 8.07 1.328.56 8.481-17.153-1.658-.844c-1.68 2.862-3.36 5.725-5.112 9.367"/><path fill="#fff" d="M470.071 472.011c-4.752-5.328-9.652-10.275-13.337-16.005-3.535-5.497-6.033-11.714-8.534-17.801-1.016-2.474-1.184-5.446-1.135-8.18.169-9.413-.618-19.071 1.256-28.162 2.19-10.629 6.943-20.412 14.475-29.024 9.901-11.32 21.926-19.575 35.863-23.164 10.54-2.714 22.305-1.796 33.405-.937 14.28 1.104 25.626 9.786 35.992 18.592 6.178 5.249 11.472 12.161 14.881 20.16 5.457 12.799 7.086 26.122 5.932 39.716-.953 11.233-5.17 21.356-11.227 31.142-8.484 13.707-20.546 22.112-35.064 27.51-5.013 1.864-10.625 2.101-15.948 3.158-2.816.559-5.578 1.626-8.404 1.798-1.585.096-3.32-1.854-4.872-1.701-9.606.946-18.47-1.603-26.693-6.012-5.73-3.073-10.826-7.325-16.59-11.09m93.423-94.956c-2.364-1.752-5.128-3.155-7.022-5.319-7.364-8.416-17.793-10.897-27.689-13.422-8.168-2.084-16.677-1.209-25.431 1.233-10.33 2.88-19.477 6.813-26.697 14.448-4.76 5.033-9.057 10.695-12.581 16.656-4.334 7.329-7.643 15.305-7.036 24.168.488 7.115.588 14.378 2.212 21.256 1.372 5.808 3.783 11.85 7.369 16.536 4.58 5.987 10.735 10.79 16.332 15.97 8.987 8.32 20.616 10.427 31.965 12.12 5.808.867 12.306-.643 18.084-2.412 6.454-1.977 13.142-4.536 18.464-8.527 6.832-5.12 13.495-11.19 18.198-18.212 4.306-6.428 7.772-13.843 8.71-22.135 1.553-13.72 1.067-26.9-6.484-39.014-2.643-4.24-5.284-8.48-8.394-13.346m266.06 564.74c6.95-7.701 9.177-17.767 13.518-26.78 1.382-2.87 3.51-5.407 5.457-7.974 2.187-2.884 4.873-2.299 7.941-1.275 3.592 1.198 2.572 3.91 2.458 6.135-.26 5.053-1.94 6.873-5.772 6.773l2.07-9.175c-8.656 8.737-11.49 19.392-10.046 32 2.937-3.468 5.941-6.882 8.794-10.419 2.952-3.66 5.632-7.546 8.707-11.094.856-.988 2.693-1.127 4.08-1.655.085 1.243.42 2.53.213 3.722-.902 5.19-1.963 10.354-2.966 15.527l1.183.694c3.925-6.016 8.082-11.9 11.626-18.132.99-1.74.035-4.518.212-6.801.378-4.876 4.277-7.413 9.52-6.33 3.18.656 4.713 4.314 3.585 8.556-.765 2.874.138 6.746-5.208 7.806l1.26-13.28c-4.957 2.656-4.718 7-3.99 10.782.614 3.192 2.753 6.09 4.218 9.118 2.867-2.967 6.132-5.651 8.487-8.98 2.27-3.211 3.125-7.453 5.5-10.554 1.82-2.375 4.853-4.719 7.677-5.225 4.704-.842 6.678 2.21 5.274 6.94-.82 2.759-.136 6.811-5.42 6.775l1.976-10.256c-7.738 6.93-13.935 27.156-9.678 32.944 3.669-4.544 7.37-8.801 10.694-13.336 3.323-4.536 6.2-9.396 9.402-14.025 2.336-3.378 5.309-3.879 8.902-1.503a354 354 0 0 0-5.635 6.9c-2.203 7.587-5.88 14.659 1.054 21.543 1.585-2.6 2.532-5.326 3.34-8.093 1.601-5.486-3.069-8.975-4.4-13.533 7.953-1.683 19.161-.827 21.721 2.124h-14.891c.902 4.975 2.414 9.614 2.372 14.239-.034 3.811-1.182 8.17-6.274 9.024-3.958.665-9.98-2.996-11.452-7.098-.74-2.06-.985-4.298-1.4-6.207-3.06 3.435-6.407 6.93-9.436 10.682-2.197 2.721-5.18 3.78-7.761 2.186-2.063-1.274-3.302-4.218-4.355-6.659-.604-1.399-.107-3.273.214-5.468.358-1.073.399-1.613.44-2.153l-1.32.945c-2.665 2.026-4.07 4.125-3.687 8.054.408 4.18-.388 8.825-1.943 12.759-1.88 4.758-6.544 6.026-10.44 4.043-3.114-1.584-4.267-3.97-2.738-7.17 1.449-3.031 2.962-6.085 4.878-8.827 4.342-6.212 4.45-6.137.335-12.65-3.3 4.39-6.314 9.047-10.041 13.038-1.49 1.594-4.552 1.717-6.898 2.51-.637-2.025-1.431-4.018-1.856-6.087-.287-1.399-.055-2.904-.055-5.661-2.808 3.628-4.742 6.523-7.09 9.03-1.728 1.844-3.78 3.782-6.074 4.615-4.514 1.64-7.38-1.163-8.208-6.918-2.295 3.206-4.546 6.937-7.43 10.091-1.155 1.264-4.108 2.182-5.498 1.569-1.386-.611-2.736-3.448-2.532-5.116.622-5.088 1.998-10.084 3.086-15.114.28-1.289.579-2.574.2-4.048-2.151 3.723-4.057 7.622-6.552 11.098-1.314 1.83-3.93 4.293-5.467 3.989-1.811-.358-3.092-3.401-4.635-5.321-1.29 1.69-3.277 4.186-5.146 6.768-2.516 3.474-6.288 4.54-9.486 2.498-3.23-2.064-4.214-5.961-2.305-9.934.257-.535.035-1.301-1.053-3.043-1.241 1.679-2.152 3.934-3.81 4.883-1.895 1.085-4.715 1.807-6.644 1.18-1.507-.49-3.09-3.228-3.206-5.058-.404-6.374 3.22-11.409 7.068-15.914 2.623-3.071 7.79-1.747 12.501 2.466 1.32-2.042 2.404-4.277 4.027-6.004.896-.955 2.697-1.06 4.09-1.548.06 1.251.465 2.607.123 3.737-2.443 8.088-5.049 16.126-7.549 24.197-.101.329.339.824 1.04 2.388 3.48-4.727 6.766-8.715 9.51-13.046 2.798-4.416 5.064-9.169 7.957-14.5 4.755 6.272-1.197 11.947.587 18.347 3.053-5.605 5.718-10.644 8.537-15.594 1.033-1.814 2.219-3.659 3.748-5.028.878-.787 3.053-1.305 3.805-.768 1.022.73 1.939 2.726 1.693 3.933-1.442 7.087-3.26 14.098-4.887 21.149-.29 1.26-.278 2.59-.724 4.405-.36 1.057-.4 1.597-.44 2.137zm-45.553-10.678c.467.316 1.29.965 1.35.9 3.004-3.201 5.941-6.463 8.95-9.789l-3.442-5.483c-2.606 5.172-4.73 9.389-6.858 14.372m95.962 13.29c-2.23 2.442-3.87 5.037-2.456 8.664 4.275-2.96 4.895-4.698 3.935-10.944-.555.594-.981 1.05-1.48 2.28m-719.587-27.024c-1.125 2.867-2.58 5.653-3.311 8.617-1.927 7.81-3.409 15.73-5.39 23.526-.4 1.58-2.215 2.802-3.379 4.189-1.098-1.765-3.195-3.576-3.118-5.288.3-6.655.772-13.388 2.138-19.89 2.54-12.097 5.663-24.076 8.732-36.056.985-3.843 2.563-7.533 3.859-11.262 3.838-.53 5.661-.22 4.212 4.242-1.813 5.58-2.827 11.419-3.844 15.702 4.102-5.285 8.533-11.858 13.855-17.607 5.202-5.619 13.437-4.117 14.67 2.263a28 28 0 0 1-.007 10.423c-2.11 10.817-6.16 20.947-12.892 29.747-1.873 2.447-4.598 4.967-7.423 5.812-6.359 1.903-10.91-3.312-9.39-10.058.28-1.24.62-2.467 1.298-4.33 2.882-6.314 4.713-7.956 9.085-7.886-2.885 5.91-7.598 11.287-4.709 18.742.805-.603 1.51-.981 2.022-1.537 9.97-10.818 14.66-24.04 17.12-38.205.236-1.356-.871-2.946-1.356-4.427-1.617.583-3.748.705-4.762 1.831-3.796 4.22-7.958 8.376-10.604 13.296-3.033 5.641-4.602 12.07-6.806 18.156m41.071 11.822c-3.435 2.888-5.57 5.646-4.832 11.078.584 4.3-1.756 9.315-3.774 13.547-1.564 3.28-5.424 4.458-8.738 2.594-3.669-2.062-4.22-5.713-2.087-9.352 2.365-4.036 5.005-7.912 7.042-11.1-1.402-7.085-3.223-13.744-3.863-20.515-.358-3.787 1.178-8.12 6.197-8.384 8.504-.445 8.455 2.846 7.03 10.89-.405 2.281-.495 6.466-5.194 4.657l1.661-12.284-1.511-.126c-5.945 6.925-2.092 13.602 1.355 21.585 3.605-3.974 6.751-7.701 10.209-11.112 1.206-1.19 3.183-1.599 4.807-2.364.083 1.741.493 3.543.186 5.212-.864 4.703-2.023 9.35-3.257 14.878 6.847-5.35 9.242-12.392 12.375-19.063 2.022-4.304 4.759-8.304 7.453-12.25 2.024-2.964 5.022-2.843 7.849-1.225 2.774 1.588 2.96 3.698 1.826 6.857-1.977 5.502-1.613 5.633-5.233 5.909l1.913-9.368c-6.966 3.857-14.101 26.61-9.542 32.298 3.326-4.14 6.542-8.16 9.777-12.163 3.05-3.775 6.12-7.534 9.182-11.3l2.178 1.599c-1.549 2.33-2.975 4.755-4.673 6.97-3.76 4.903-7.665 9.695-11.497 14.543-2.297 2.907-5.314 5.43-8.803 3.341-2.483-1.487-3.86-4.822-5.39-6.875-1.81 1.27-4.474 3.819-7.648 5.155-2.654 1.117-4.771-.306-4.486-3.858.214-2.65.046-5.33.366-8.548.36-1.091.4-1.631.44-2.17zm-13.415 15.46c-1.176 2.908-4.405 5.495-.762 10.167l4.294-13.013-1.073-.332c-.676.849-1.353 1.697-2.459 3.179m557.21-36.263c1.697-4.897 3.185-9.428 4.68-13.981-13.94-1.86-28.423 1.346-26.907 10.014-1.328-1.408-3.457-2.67-3.75-4.268-.272-1.492.974-4.187 2.31-4.869 3.63-1.853 7.568-3.517 11.56-4.156 5.622-.9 11.431-.585 17.1-1.28 1.703-.21 3.534-1.777 4.738-3.202 3.491-4.131 15.72-10.986 23.061-7.541 1.616.758 3.613 2.682 3.7 4.17.09 1.516-1.62 3.93-3.139 4.599-4.653 2.051-9.496 4.318-14.447 4.868-5.01.555-8.047 2.172-9.425 6.97-1.615 5.623-3.336 11.216-5.128 17.212l9.885-2.25.93 1.604c-1.217.898-2.34 2.384-3.668 2.595-6.18.985-8.745 4.275-9.978 10.574-2.027 10.357-4.984 20.575-12.393 28.89-3.897 4.372-7.068 5.951-11.577 3.947-3.181-1.414-5.695-7.044-4.748-11.197 2.979-13.052 9.463-23.492 21.908-29.65 5.243-2.595 3.557-8.375 5.288-13.049m-6.239 26.16 2.562-10.182c-10.024 6.644-16.265 14.375-18.58 25.03-.912 4.205-1.33 8.161 3.361 10.817 6.694-7.192 10.238-15.716 12.657-25.665m35.444-49.49 3.375-2.398c-6.627-.352-12.108 1.41-16.116 6.815 4.063-1.286 8.127-2.572 12.741-4.417m-102 31.132c-8.188 4.082-11.02 12.7-16.29 19.25-2.444 3.037-4.433 6.614-7.391 9-1.915 1.545-5.266 2.034-7.876 1.818-3.69-.306-2.765-3.705-2.902-6.24-.481-8.891 1.057-17.159 7.414-23.896 3.426-3.63 8.065-4.215 10.714-1.51 1.88 1.923.73 7.072-2.383 10.084-1.034 1-2.227 2.15-3.54 2.497-6.383 1.682-6.562 6.47-6.204 11.648.08 1.16.012 2.331.92 4.22 3.227-4.062 6.61-8.011 9.638-12.216 3.007-4.175 5.218-8.995 8.597-12.807 2.8-3.159 6.556-5.715 10.33-7.693 3.17-1.661 6.731 2.04 5.464 5.581-1.281 3.58-3.217 6.926-4.807 10.25l5.381 3.311 15.301-11.29 1.627 1.59c-1.326 1.707-2.45 3.639-4.03 5.067a43.5 43.5 0 0 1-7.003 5.17c-6.532 3.857-5.161 11.504-8.37 16.934-2.521 4.266-4.932 8.597-7.415 12.886-2.154 3.724-5.793 3.512-9.217 3.055-3.775-.503-5.178-6.653-2.012-10.687 4.547-5.794 9.738-11.08 14.49-16.72 1.166-1.383 1.697-3.299 2.52-4.97l-1.07-.72-9.668 3.627-1.157-1.245c3.165-4.802 6.33-9.604 9.816-14.863.36-.996.4-1.536.441-2.076zm-3.538 29.449c-2.77 4.24-7.39 7.46-7.92 12.937q.87.495 1.737.992c2.453-4.504 4.905-9.007 7.918-13.704l.121-1.619c-.44.315-.879.63-1.856 1.394m-36.902-14.179c-2.813.309-5.364.309-9.143.309-1.865 7.643-4.095 15.792-5.756 24.056-.716 3.558-2.144 4.841-6.853 3.71l6.044-37.192h-9.604c.727 2.38 2.005 4.972 2.212 7.645.259 3.362.076 6.898-.72 10.163-.786 3.219-3.143 5.247-6.946 4.86-4.147-.423-9.765-4.34-10.105-7.99-.807-8.662.386-16.914 6.848-23.527 2.167-2.216 5.228-3.464 6.226-6.97.362-1.27 2.672-1.986 4.093-2.955l.885 1.045-7.924 14.284h16.293c1.801-6.483 3.427-13.125 5.589-19.587.572-1.71 2.796-2.867 4.261-4.277.238 1.864.907 3.794.635 5.581-.865 5.673-2.082 11.292-3.261 17.448 2.213-2.02 3.727-3.967 5.708-5.093 4.33-2.46 7.3-.603 7.532 4.237.268 5.583-2.292 9.934-6.014 14.253m-27.008 1.786-4-14.207-1.459-.243c-.841 5.675-1.996 11.332-2.327 17.037-.095 1.643 2.184 3.423 3.374 5.141 1.14-1.572 2.317-3.119 3.4-4.729.436-.647.666-1.434 1.012-2.999m22.04-8.705c-.23.713-.46 1.426-.682 2.142 3.789-.441 6.84-5.68 5.818-11.25-1.789 3.285-3.216 5.908-5.136 9.108M611 761.994c0-7.31.143-14.125-.084-20.929-.072-2.145-1.207-4.24-1.717-6.391-.28-1.18-.27-2.428-.392-3.646 1.591.023 3.32-.328 4.73.188 1.09.4 1.784 1.886 2.59 2.815 3.002-1.458 5.55-3.531 8.318-3.883 8.296-1.055 11.55 1.974 14.241 12.1 2.075 7.809-3.113 18.19-10.624 20.018-3.022.735-6.488-.352-10.03-.63v14.109H611zm19.073-7.607c2.08-4.759 2.176-9.516.44-14.452-2.108-5.996-4.901-7.304-9.846-3.786-1.345.957-2.369 3.104-2.55 4.81-.384 3.617-.139 7.304-.11 10.961.02 2.334-.85 5.376 2.61 5.848 3.224.44 6.944 1.368 9.456-3.381m-327.945-28.009c-5.002 8.82-5.115 17.557.017 25.722 3.674 5.845 13.191 9.338 22.82 5.435 1.63-.66 3.169-1.546 4.7-2.303 2.14 5.98-2.919 6.007-5.865 6.287-8.727.828-17.337 1.47-25.386-4.238-6.995-4.96-8.618-11.881-8.168-19.03.712-11.342 7.141-18.936 18.577-21.567 6.637-1.527 13.184-.916 19.793.896l-1 5.622c-9.077-3.81-17.99-6.963-25.488 3.176m142.698 32.947c-5.025-6.388-6.333-13.054-3.343-20.306 2.945-7.144 8.99-10.03 18.511-9.018 5.013.533 8.418 4.92 10.097 11.813 1.733 7.113-.234 12.912-5.77 17.18-6.04 4.656-12.696 4.08-19.495.331m17.154-5.254c1.667-5.272 2.138-10.714-.161-15.741-1.01-2.208-3.67-4.484-5.969-4.997-1.604-.358-4.734 1.789-5.644 3.592-1.668 3.31-3.07 7.216-2.976 10.831.108 4.126.803 8.751 5.769 10.833 4.387 1.839 6.254-1.5 8.981-4.518m-83.957-23.585c3.909-.146 8.039-2.095 10.777 1.905.969 1.415 2.057 3.13 2.101 4.734.217 7.794.098 15.597.098 23.634H384c0-6.8-.06-13.58.028-20.358.04-3.04-.772-5.6-4.202-5.28-2.9.27-5.818 1.459-5.823 5.324-.009 6.647-.003 13.293-.003 20.246h-6.578c-2.1-8.932 2.385-18.907-3.117-27.906 2.786-3.632 2.786-3.632 8.618 1.179 1.61-1.055 3.216-2.114 5.1-3.478m397.14 1.485c5.886-3.085 14.214-2.616 18.247.958 4.144 3.671 5.833 12.693 3.572 19.08-2.07 5.849-8.036 9.97-14.463 9.991-7.783.026-12.978-3.294-14.506-9.27-2.354-9.205.166-16.936 7.15-20.759m9.434 1.994c-1.297-.053-2.879-.616-3.848-.077-7.897 4.391-8.379 16.401-2.924 23.106 1.203 1.479 5.412 2.362 6.94 1.42 8.629-5.326 7.79-19.598-.168-24.449m-94.601 18.355c.003-7.577.003-14.715.003-22.084h5.665c1.65 9.786-2.399 20.37 4.047 29.48-2.073 2.156-4.048 2.758-6.515.362-1.394-1.355-3.117-2.122-5.13-.18-1.174 1.135-3.108 1.777-4.793 2.037-7.117 1.101-10.623-1.69-11.166-9.743-.489-7.257-.103-14.572-.103-22.023H679c0 6.29-.022 12.71.01 19.13.015 3.216-.836 7.242 3.048 8.524 3.997 1.32 6.124-2.022 7.938-5.503M510 738.002V760.7h-7v-41.129l-13.82 2.542v-5.91h34.596v6.03c-2.748-.633-5.337-1.166-7.891-1.829-4.697-1.22-5.855-.348-5.88 4.623-.022 4.159-.005 8.317-.005 12.975m197.286 105.783c-1.677-2.352-3.08-4.44-5.157-7.527v18.486h-4.872v-28.548c5.327-1.105 5.942 3.695 8.016 6.532 2.248 3.076 4.386 6.23 6.568 9.345 5.87-4.622 5.738-14.485 14.955-16.675v29.346h-4.617V835.44c-2.566 3.713-4.518 6.52-6.45 9.34-3.263 4.758-5.088 4.599-8.443-.995m-360.233-86.759c3.756.023 7.107.023 10.956.023-.128 3.837-4.084 4.437-6.9 4.79-6.57.821-13.225.47-16.926-6.428-3.715-6.924-2.584-13.833 1.265-20.272 2.355-3.939 11.745-6.538 16.573-5.099 3.93 1.172 7.772 8.421 7.734 14.93H339.45c-.82 6.973.694 9.42 7.602 12.056m-2.262-22.998-7.1 7.696h15.384c-.633-4.731-2.953-7.31-8.284-7.696m296.221 15.536c-.728-7.017.742-13.029 6.15-17.07 4.398-3.286 9.832-3.862 14.83-1.4 5.39 2.657 6.59 7.72 5.832 13.829h-20.72c1.746 11.84 5.997 14.207 20.239 10.867-.709 1.684-.867 3.187-1.697 3.849-5.991 4.782-18.305 2.625-22.363-3.922-1.062-1.713-1.524-3.798-2.27-6.153m17.18-7.564 4.174-.214c-1.97-4.159-3.613-8.623-8.369-7.485-2.59.62-4.445 4.304-6.632 6.606l1.033 1.093zm-109.361 3h-16.393c-.793 10.605 5.178 14.017 20.103 10.82-1.03 1.841-1.403 3.633-2.37 4.053-5.809 2.522-11.672 3.59-17.72.26-5.376-2.958-6.421-7.773-6.443-13.185-.036-8.982 4.647-15.865 11.51-16.936 10.73-1.673 16.385 4.828 15.374 14.641-1.132.11-2.357.228-4.06.347m-14.982-6.33-1.07 3.204h13.743l.915-1.075c-2.407-2.254-4.513-5.177-7.358-6.454-1.245-.559-4 2.247-6.23 4.326m48.271-6.688c4.702-.69 9.009-1.932 13.28-1.816 4.697.128 6.287 4.056 6.548 8.21.24 3.814-.191 7.677.127 11.48.258 3.078 1.19 6.099 2.023 10.108-2.193 2.958-2.193 2.958-7.438-1.49-3.602 1.252-6.879 3.254-10.15 3.244-2.502-.008-6.343-2.014-7.19-4.104-1.383-3.405-.89-7.824 3.616-9.542 4.013-1.53 8.238-2.5 12.6-3.785 1.716-11.25-4.57-11.993-16.097-7.872 1.053-2.035 1.662-3.211 2.681-4.433m13.829 16.704c-2.966.603-6.104.821-8.796 2.032-.848.382-1.023 3.595-.502 5.183.312.952 3.003 2.142 3.872 1.71 3.17-1.575 6.586-3.417 5.426-8.925"/><path fill="#fff" d="M595.749 899.6a3579 3579 0 0 0-9.683 42.178c-.385 1.723-.91 3.662-.459 5.24.302 1.05 2.245 2.322 3.418 2.287 2.598-.077 5.174-.916 8.452-1.585-2.675 3.851-10.864 6.188-14.618 4.07-4.42-2.494-3.409-7.387-2.584-11.118 3.637-16.438 7.711-32.78 11.827-49.107.402-1.595 2.18-2.842 3.32-4.25l1.85.914c-.436 3.665-.87 7.33-1.523 11.37m181.838-51.502c-3.436-7.404-.815-15.948 3.56-19.216 5.546-4.143 15.651-3.846 20.2.893 4.8 5 5.803 10.651 3.624 16.998-1.95 5.68-6.402 8.577-12.036 9.13-6.37.624-11.928-1.25-15.348-7.805m15.898-17.151c-2.114.023-4.393-.46-6.309.168-4.765 1.562-7.05 5.462-5.924 12.07.482 2.833 3.202 6.265 5.823 7.542 4.954 2.415 11.532-.931 13.461-5.758 2.237-5.594-.086-10.78-7.051-14.022m-199.168-4.493c2.618-.77 3.837-.35 3.76 2.602-.22 8.462-.077 16.934-.077 26.774-9.503-3.97-11.435-13.54-17.697-19.623v18.439h-5.119v-30.019c2.698 1.881 4.95 2.79 6.21 4.453 4.122 5.435 7.882 11.144 12.65 17.997 0-7.78 0-14.01.273-20.623m230.755.11c5.19.427 7.127 4.036 7.766 7.845.757 4.511-1.464 8.143-6.156 10.253l6.13 9.9c-4.171 1.496-6.032-.518-7.969-3.77-1.757-2.951-3.148-7.502-8.739-5.403v9.396l-4.82.28V826.25c4.375 0 8.932 0 13.788.313M816 837.413l.236 4.822c4.044-1.375 7.604-2.259 10.763-3.91.716-.374.61-4.693-.093-5.006-3.265-1.452-6.874-2.135-10.906-3.243zm-356-3.361v-8.42c5.182.462 10.296.298 15.068 1.496 6.442 1.617 8.762 11.18 3.597 15.371-3.358 2.726-2.315 4.417-.606 6.854 1.2 1.712 2.43 3.402 3.693 5.168-5.63.752-5.828.871-9.661-5.482-1.893-3.138-3.872-4.944-7.98-3.685v9.284c-2.676.646-4.304.833-4.172-2.626.222-5.815.061-11.645.061-17.96M471.009 841c3.326-.463 6.026-2.01 5.617-5.665-.453-4.04-3.837-4.947-12.28-3.89V841zm-92.277-15c5.302-.146 9.508 1.613 10.871 6.3 1.223 4.202 1.26 8.872-3.524 11.795-.555.339-.753 2.277-.327 3.024 1.5 2.632 3.342 5.068 5.014 7.52-5.875 2.143-7.585-2.437-9.725-5.885-1.811-2.92-3.812-4.73-7.797-3.44v9.355l-4.07.295V826zM373 836.474l.294 6.007c4.41-1.729 8.152-2.988 11.622-4.775.534-.275.258-4.119-.397-4.373-3.54-1.375-7.317-2.14-11.519-3.248zm298.996 12.506c-2.277-1.9-4.52-3.419-7.845-5.67v11.438l-4.002.207v-28.844c3.993 0 8.143-.517 12.096.146 3.943.661 8.004 2.325 8.694 7.153.717 5.02-.413 9.416-5.894 11.625l6.165 9.35c-5.622 2.447-6.804-2.337-9.214-5.405m.798-8.244c3.655-1.287 4.286-4.52 2.875-7.117-2.683-4.94-7.508-1.918-11.398-2.485v9.849c2.734 0 5.201 0 8.523-.247M619.38 855.86c-11.142.182-13.27-1.136-15.421-9.528 2.146.106 3.96-1.844 5.496 2.14 1.825 4.735 9.537 3.913 12.977-1.866-3.56-1.568-6.908-3.284-10.42-4.537-6.162-2.197-8.258-4.702-6.908-10.348 1.13-4.718 5.044-5.824 9.537-5.756 7.645.114 11.101 2.991 11.147 9.856-2.373.256-3.972.689-5.419-2.644-2.087-4.809-7.284-4.147-12.23 1.991 4.245 1.71 8.076 3.323 11.959 4.8 3.662 1.393 5.773 3.526 6.027 7.847.29 4.944-2.72 6.497-6.746 8.045M405.93 724.582c1.153 1.33 2.04 2.964 3.315 5.316h6.746c.188 6.97-5.426 2.476-7.99 5.12 0 6.11-.182 13.055.1 19.982.098 2.407 1.182 4.808 4.734 3.173.732-.337 2.08.663 3.144 1.047-.864.658-1.632 1.584-2.607 1.934-8.441 3.028-12.322.395-12.368-8.308-.023-4.33.153-8.667-.059-12.986-.142-2.891 1.781-7.312-4.111-7.022-.033.001-.152-1.774-.231-2.719 4.575.95 5.574-4.295 9.327-5.537m303.424 36.254c-.998-3.554-2-6.798-2.272-10.102-.34-4.13-.095-8.31-.077-12.467.012-2.674.519-5.63-3.754-5.344-.38.026-1.081-.69-1.154-1.138-.085-.53.449-1.664.549-1.646 5.253.972 6.238-5.701 11.171-5.998.09 1.73.18 3.465.288 5.58h7.537l.348 4.284H714c0 7.477-.052 14.59.028 21.702.03 2.725 1.574 3.457 4.125 2.721 1.183-.34 2.482-.279 4.053-.431-2.854 4.46-6.11 5.166-12.852 2.839M543.25 843.265c-4.37 1.452-8.456 2.616-13.14 3.95v7.526h-4.846v-29.018c4.344.384 8.95.166 13.196 1.298 8.373 2.232 10.223 8.707 4.79 16.244m-4.827-2.174c.803-2.509 3-5.763 2.134-7.38-2.168-4.051-6.583-2.706-10.305-2.487v10.856c2.695-.13 5.127-.247 8.171-.99m206.35-107.372c4.755-5.015 10.515-4.092 15.903-3.161 1.309.226 2.049 3.747 3.572 6.8-5.899-1.295-9.992-6.445-14.483-1.53-4.273 4.678-4.743 11.74-1.803 16.632 3.934 6.547 9.442 5.949 15.374 3.221.287 3.471-2.478 5.942-6.533 6.322-14.434 1.353-18.309-8.694-16.442-19.551.51-2.968 2.716-5.644 4.412-8.733M734 844.972v-18.675h17.757l.343 4.459h-12.758v7.96h11.291l.363 4.277h-11.791v7.953h13.574v3.824H734zm-326.794-18.94c5.028.345 9.702.19 14.092 1.231 4.847 1.15 6.88 5.838 5.627 12.008-.86 4.237-4.143 6.252-8.267 6.685-2.3.242-4.647.043-7.367.043v8.643h-4.564c0-9.547 0-19.065.48-28.61m11.52 15.762c2.457-1.56 5.18-2.981 3.85-6.701-1.469-4.109-4.383-4.979-11.315-3.469v10.363c2.381 0 4.503 0 7.465-.193m36.587 10.966c-.224.95-.766 2.163-1.202 2.126-1.08-.09-2.429-.482-3.091-1.25-1.032-1.197-1.585-2.806-2.55-4.636-2.65 0-5.615.092-8.57-.027-2.682-.109-4.633.065-5.31 3.513-.264 1.343-2.923 2.216-4.492 3.302l-1.252-1.275c3.623-8.941 7.13-17.932 11.004-26.762.52-1.185 2.895-1.556 4.42-2.308 3.807 9.546 7.29 18.279 11.043 27.317m-8.557-8.027-4.111-11.257-4.944 11.506c3.07 0 5.653 0 9.055-.25m43.532-5.449c1.743-4.02 2.978-7.87 4.902-11.339.506-.91 4.444-1.212 4.62-.819 4.017 9.008 7.73 18.151 11.519 27.313-3.342 1.185-5.287.713-6.443-2.553-.433-1.224-2.232-2.596-3.547-2.755-3.267-.394-6.615-.13-9.775-.13-1.958 2.8-1.94 7.791-7.571 5.564 2.015-4.99 4.03-9.98 6.295-15.281m5.737-2.483-2.695 8.017h8.96l-4.586-11.183a127 127 0 0 0-1.679 3.166m152.677.463c2.534 5.942 4.811 11.58 7.197 17.489-2.976.343-5.63 1.146-6.186-3.223-.126-.99-2.418-2.038-3.882-2.435-1.548-.42-3.328.111-4.953-.133-4.524-.681-6.736 1.35-7.067 5.87h-5.509c3.538-8.49 6.977-16.926 10.611-25.277.598-1.375 2.052-2.377 3.11-3.551 1.314 1.234 3.033 2.25 3.846 3.754 1.197 2.218 1.749 4.784 2.833 7.506m-10.69 6.525c2.822.57 5.645 1.138 9.247 1.864l-5.066-11.999c-1.595 3.552-2.883 6.42-4.181 10.135M551 834.052v-7.738h17.667v4.731h-13.494v7.636h12.428l.42 4.282h-12.797v7.952h13.535v3.84H551zm226.103 79.965c1.282.514 2.183 1.04 3.404 1.753-6.523 4.194-8.734 10.67-11.508 16.772-1.061 2.335-1.765 4.947-3.296 6.915-1.018 1.31-3.471 2.617-4.81 2.242-1.281-.36-2.929-3.027-2.734-4.45 1.239-9.08 2.942-18.094 4.493-27.13l1.887-.6c.82 1.284 2.37 2.593 2.327 3.85-.14 4.218-.832 8.42-1.347 12.625-.145 1.185-.405 2.356-.41 2.383 3.536-4.368 7.574-9.358 11.994-14.36m-433.105-75.996a241 241 0 0 1 3.395-8.871c1.036-2.576 2.536-4.2 6.067-2.344l-10.826 27.887c-3.771 1.371-5.407-.496-6.738-4.273-2.81-7.969-6.173-15.742-9.345-23.685 3.403-1.65 4.994-.358 6.035 2.357 2.284 5.963 4.617 11.905 7.396 19.052 1.562-3.818 2.77-6.771 4.016-10.123m-44.238 6.361c.336 1.1.464 1.855.592 2.609l1.092.287c1.524-4.044 2.605-8.337 4.703-12.057 1.877-3.328.991-9.48 8.62-9.303l-11.127 28.789c-3.789 1.243-5.448-.531-6.717-4.076-2.85-7.96-6.136-15.763-9.257-23.66 4.09-1.212 4.945-.767 6.31 2.788a841 841 0 0 0 5.783 14.623m122.135-114.326c4.314-.912 4.827 1.936 5.31 4.298l10.517-6.44.348 6.477c-1.56.526-2.998 1.097-4.482 1.493-4.277 1.14-6.043 3.642-5.685 8.255.42 5.426.098 10.909.098 16.612h-6.552c0-10.21 0-20.429.446-30.695m143.071 1.824c.066 1.183.102 1.962.13 2.586l10.136-6.324 2.032 6.422c-1.501.275-2.772.385-3.967.746-6.708 2.023-7.296 2.851-7.296 9.893v15.577h-5.77v-31.25c1.781.737 3.244 1.341 4.735 2.35m163.06 27.83c-.022-10.058-.022-19.638-.022-29.462h5.739v30.89c-1.885-.314-3.79-.632-5.717-1.429M766 835.029v-8.788l4.452-.307c.207.577.505 1.025.508 1.474.038 5.488.312 10.993-.03 16.46-.427 6.808-2.625 12.34-11.19 11.15-.976-.135-1.988-.018-3.381-.018l-.378-4.001c1.805 0 3.26.053 4.71-.01 3.481-.152 5.304-1.958 5.308-5.492.003-3.326 0-6.652.001-10.468m-409 6.964v-15.67h4.834v28.453H357zm-34 2.976v9.708h-4.834v-28.455H323zM660.002 717.98c1.154-1.759 2.276-3.155 3.48-4.653l5.449 4.926c-6.215 3.085-9.87 8.936-16.364 10.023l-.902-1.142c2.768-2.93 5.537-5.86 8.337-9.153M249.523 934.202c.927 2.703 1.822 5.24 1.753 7.75-.014.543-3.96 1.905-5.254 1.244-1.489-.762-2.93-3.414-2.809-5.133.22-3.126 2.522-4.78 6.31-3.86M732.69 718.015c.891 2.001 1.756 4.018 1.61 5.96-.051.69-3.069 2.058-3.833 1.604-1.487-.884-3.207-2.802-3.269-4.354-.123-3.09 2.442-3.57 5.492-3.21M211.578 906.22c.69.542 1.306.882 1.324 1.251.084 1.696 0 3.4-.022 5.1-1.33-.67-3.326-1.016-3.844-2.08-.896-1.844-1.42-4.413 2.542-4.271m654.781.07c3.724-.245 4.962 1.753 4.508 4.807-.102.685-1.704 1.802-2.344 1.642-3.466-.874-3.16-3.514-2.164-6.448"/><path d="M554.922 337.077c-2.254-2.018-5.064-3.678-6.644-6.13-3.04-4.716-5.382-9.88-8.013-14.86l1.074-.785c4.145 2.238 8.256 4.54 12.442 6.699 5.294 2.73 10.79 5.106 15.907 8.128 2.048 1.209 3.321 3.73 4.947 5.654l-1.146 1.104c-2.594-1.865-5.445-3.464-7.713-5.664-2.604-2.524-5.743-4.52-8.757-2.883-1.5.815-1.251 4.85-1.742 7.906-.084.596-.219.713-.355.831m6.799 6.2-4.203-2.41.95-1.418c1.163 1.061 2.327 2.122 3.342 3.536-.148.352-.089.292-.089.292" fill="transparent"/><path fill="transparent" d="M555.544 336.562c1.111.487 2.007 1.136 2.903 1.784l-.7 1.243c-.913-.568-1.826-1.137-2.782-2.109.093-.52.228-.638.58-.918m6.087 6.804a54 54 0 0 0 2.239.11l-.244.834a8 8 0 0 1-1.631-.76c-.275-.273-.334-.213-.364-.184m-89.554 166.557 7.127.378c2.865-6.454-.938-10.011-4.057-14.18.123-.41.048-.329.017-.295 4.92 5.463 10.253 10.604 14.677 16.433 2.573 3.39 3.69 7.885 5.088 11.036-7.512-3.928-15.342-8.022-23.216-12.568.092-.57.228-.687.364-.804"/><path fill="transparent" d="M471.455 510.436c-7.487-3.185-7.487-3.185-8.91-9.088 3.15 2.612 6.303 5.224 9.494 8.206-.097.486-.233.604-.584.882m-11.085-9.975c.368.325.421.893.474 1.461-.263-.406-.526-.812-.474-1.461M413.775 922.62c-3.315 3.801-6.435 7.285-9.556 10.768l-1.566-.996 7.834-15.916c1.731 2.896 2.606 4.36 3.288 6.143m105.216-24.509c1.716-3.253 3.396-6.116 5.076-8.978l1.658.844-8.481 17.154-1.328-.562c1.013-2.69 2.026-5.38 3.075-8.459M351.43 940.55c-.173.89-.506 1.562-1.325 3.215.099-1.91.142-2.744.499-3.708.431.006.55.141.826.494m-3.86-20.101c.173-.89.506-1.562 1.325-3.215-.099 1.91-.142 2.744-.499 3.708-.431-.006-.55-.141-.826-.494m63.024 12.981c.291-.54.73-.855 1.17-1.17-.04.54-.08 1.08-.401 1.716-.394-.043-.507-.182-.77-.546m38.813 8.14c-.291.54-.73.855-1.17 1.17.04-.54.08-1.08.401-1.716.394.043.507.182.77.546m114.321-564.202c2.876 4.553 5.517 8.794 8.16 13.033 7.551 12.114 8.037 25.293 6.484 39.014-.938 8.292-4.404 15.707-8.71 22.135-4.703 7.022-11.366 13.091-18.198 18.212-5.322 3.99-12.01 6.55-18.464 8.527-5.778 1.769-12.276 3.279-18.084 2.412-11.35-1.693-22.978-3.8-31.965-12.12-5.597-5.18-11.752-9.983-16.332-15.97-3.586-4.687-5.997-10.728-7.369-16.536-1.624-6.878-1.724-14.141-2.212-21.256-.607-8.863 2.702-16.84 7.036-24.168 3.524-5.96 7.82-11.623 12.58-16.656 7.221-7.635 16.368-11.567 26.698-14.448 8.754-2.442 17.263-3.317 25.431-1.233 9.896 2.525 20.325 5.006 27.69 13.422 1.893 2.164 4.657 3.567 7.255 5.632m-73.51 8.886c.03 1.46-.496 3.286.184 4.318 3.336 5.07 4.531 10.595 4.647 16.553.072 3.745.49 7.499.99 11.216.557 4.125 7.88 11.823 11.77 11.503 5.946-.489 6.48 2.66 6.217 7.129-.146 2.49-.026 4.997-.026 7.496 0 8.16-.014 7.99-8.113 8.668-1.704.143-3.261 2.038-4.887 3.125 1.474 1.91 2.854 5.375 4.438 5.471 8.797.534 17.665.567 26.455-.02 1.81-.12 4.617-3.496 4.79-5.555.236-2.806-2.876-3.427-5.574-3.173-.99.093-2.02-.12-2.993.04-2.873.476-3.99-1.28-4.049-3.572-.163-6.448-.057-12.903-.057-19.938 6.816 2.084 10.939-1.583 13.656-6.174 2.014-3.404 2.656-7.785 3.228-11.828.555-3.916-1.088-8.684.606-11.78 2.894-5.289 2.162-10.337 2.488-15.62-8.279-.241-11.558 2.81-11.989 10.565-.329 5.916-.637 11.833-1.01 17.746-.256 4.058-3.47 7.4-6.989 7.096v-29.918c0-7.993-2.131-9.544-10.084-7.015v37.27c-4.176-.136-8.721-4.057-8.852-7.972-.255-7.662.646-15.5-3.142-22.582-1.423-2.661-3.472-5.17-5.81-7.022-.523-.413-3.463 2.227-5.894 3.973m433.397 533.364c1.303 4.53 5.973 8.019 4.372 13.505-.808 2.767-1.755 5.493-3.34 8.093-6.933-6.884-3.257-13.956-1.197-21.23.25-.285.193-.34.165-.368m-139.613 11.116c2.126-4.6 4.25-8.817 6.857-13.989l3.442 5.483c-3.009 3.326-5.946 6.588-8.95 9.788-.06.066-.883-.583-1.349-1.282m95.997 13.286c.462-.842.888-1.299 1.443-1.893.96 6.246.34 7.985-3.935 10.944-1.414-3.627.225-6.222 2.492-9.05m11.595-12.591c.291-.54.73-.855 1.17-1.17-.04.54-.08 1.08-.401 1.716-.394-.043-.507-.182-.769-.546m-62.188 10.14c-.291.54-.73.855-1.17 1.17.04-.54.08-1.08.401-1.716.394.043.507.182.769.546m-669.062-24.219c2.235-6.054 3.804-12.483 6.837-18.124 2.646-4.92 6.808-9.076 10.604-13.296 1.014-1.126 3.145-1.248 4.762-1.83.485 1.48 1.592 3.07 1.357 4.426-2.461 14.165-7.151 27.387-17.12 38.205-.513.556-1.218.934-2.023 1.537-2.89-7.455 1.824-12.831 4.709-18.742-4.372-.07-6.203 1.572-8.969 7.493-.25.236-.187.299-.157.331m27.902 26.999c.891-1.166 1.568-2.014 2.244-2.863l1.073.332-4.294 13.013c-3.643-4.672-.414-7.259.977-10.483m13.348-14.919c.291-.54.73-.855 1.17-1.17-.04.54-.08 1.08-.401 1.716-.394-.043-.507-.182-.769-.546M739 934.984c-2.417 9.528-5.96 18.052-12.655 25.244-4.691-2.656-4.273-6.612-3.36-10.817 2.314-10.655 8.555-18.386 18.58-25.03-1.047 4.159-1.805 7.17-2.565 10.603m35.171-49.632c-4.339 1.566-8.403 2.852-12.466 4.138 4.008-5.405 9.489-7.167 16.116-6.815-1.125.8-2.25 1.599-3.65 2.677m-104.089 60.721-7.357 13.51-1.737-.992c.53-5.478 5.15-8.696 8.337-12.937.53.14.644.28.757.419m2.512-29.643c.291-.54.73-.855 1.17-1.17-.04.54-.08 1.08-.401 1.716-.394-.043-.507-.182-.769-.546m-3 29c.291-.54.73-.855 1.17-1.17-.04.54-.08 1.08-.401 1.716-.394-.043-.507-.182-.769-.546m-64.607-11.748c-.335 1.144-.565 1.93-1 2.578-1.084 1.61-2.261 3.157-3.4 4.729-1.191-1.718-3.47-3.498-3.375-5.141.331-5.705 1.486-11.362 2.327-17.037l1.459.243c1.333 4.736 2.667 9.472 3.989 14.628m22.297-9.415c1.674-2.911 3.101-5.534 4.89-8.82 1.023 5.572-2.03 10.81-5.822 11.25.226-.715.456-1.428.932-2.43m2.508-169.572c-2.23 4.441-5.95 3.512-9.175 3.073-3.46-.472-2.59-3.514-2.61-5.848-.029-3.657-.274-7.344.11-10.962.181-1.705 1.205-3.852 2.55-4.81 4.945-3.517 7.738-2.21 9.847 3.787 1.735 4.936 1.64 9.693-.722 14.76m-167.946-.249c-2.593 2.643-4.46 5.982-8.847 4.143-4.966-2.082-5.661-6.707-5.769-10.833-.094-3.615 1.308-7.52 2.976-10.83.91-1.804 4.04-3.95 5.644-3.593 2.298.513 4.959 2.79 5.969 4.997 2.299 5.027 1.828 10.469.027 16.116M784.986 734c7.569 4.816 8.408 19.088-.221 24.413-1.528.943-5.737.06-6.94-1.419-5.455-6.705-4.973-18.715 2.924-23.106.97-.54 2.55.024 4.237.113m-439.801.014c4.937.4 7.257 2.978 7.89 7.71H337.69c2.848-3.088 4.974-5.393 7.494-7.71M657.741 742H648.4l-1.033-1.093c2.187-2.302 4.043-5.986 6.632-6.606 4.756-1.138 6.4 3.326 8.369 7.485-1.73.089-2.952.151-4.626.214m-123.812-3.73c2.15-1.678 4.905-4.484 6.15-3.925 2.845 1.277 4.951 4.2 7.358 6.454l-.915 1.075H532.78c.418-1.25.744-2.227 1.15-3.604m62.043 10.846c1.137 5.079-2.28 6.921-5.449 8.496-.87.432-3.56-.758-3.872-1.71-.521-1.588-.346-4.801.502-5.183 2.692-1.211 5.83-1.43 8.82-1.603m197.907 81.856c6.569 3.216 8.892 8.402 6.655 13.996-1.93 4.827-8.507 8.173-13.46 5.758-2.622-1.277-5.342-4.71-5.824-7.542-1.126-6.608 1.159-10.508 5.924-12.07 1.916-.628 4.195-.145 6.705-.142M816 836.943v-6.867c4.032 1.108 7.64 1.79 10.906 3.243.703.313.81 4.632.093 5.006-3.159 1.651-6.719 2.535-10.763 3.91a335 335 0 0 1-.236-5.292M470.565 841h-6.22v-9.563c8.444-1.05 11.828-.143 12.28 3.897.41 3.655-2.29 5.202-6.06 5.666M373 835.999v-5.914c4.202 1.108 7.98 1.873 11.519 3.248.655.254.931 4.098.397 4.373-3.47 1.787-7.212 3.046-11.622 4.775a501 501 0 0 1-.294-6.482m299.367 4.861c-2.895.123-5.362.123-8.096.123v-9.849c3.89.567 8.715-2.455 11.398 2.485 1.41 2.597.78 5.83-3.302 7.24m-134.249.545c-2.739.43-5.171.547-7.866.676v-10.856c3.722-.219 8.137-1.564 10.305 2.487.865 1.617-1.331 4.871-2.44 7.693m-119.81.486c-2.542.097-4.664.097-7.045.097v-10.363c6.932-1.51 9.846-.64 11.315 3.469 1.33 3.72-1.393 5.14-4.27 6.797m28.04 2.967c-2.992.125-5.575.125-8.645.125l4.944-11.506c1.538 4.214 2.825 7.735 3.701 11.381m49.849-8.404c.47-.903.771-1.457 1.509-2.82l4.586 11.184h-8.96c.902-2.681 1.799-5.349 2.865-8.364m141.822 6.912c1.293-3.291 2.581-6.16 4.176-9.712l5.066 11.999c-3.602-.726-6.425-1.295-9.242-2.287"/><path fill="#fff" d="M490.52 385.998c2.13-1.49 5.07-4.13 5.591-3.717 2.339 1.852 4.388 4.36 5.811 7.022 3.788 7.081 2.887 14.92 3.142 22.582.13 3.915 4.676 7.836 8.852 7.971v-37.27c7.953-2.528 10.083-.977 10.084 7.016v29.918c3.52.305 6.733-3.038 6.99-7.096.372-5.913.68-11.83 1.009-17.746.43-7.756 3.71-10.806 11.989-10.565-.326 5.283.406 10.331-2.488 15.62-1.694 3.096-.05 7.864-.606 11.78-.572 4.043-1.214 8.424-3.228 11.828-2.717 4.591-6.84 8.258-13.656 6.174 0 7.035-.106 13.49.057 19.938.058 2.292 1.176 4.048 4.05 3.572.972-.16 2.002.053 2.992-.04 2.698-.254 5.81.367 5.574 3.173-.173 2.059-2.98 5.435-4.79 5.556-8.79.586-17.658.553-26.455.02-1.584-.097-2.964-3.562-4.438-5.472 1.626-1.087 3.183-2.982 4.887-3.125 8.099-.679 8.113-.509 8.113-8.668 0-2.5-.12-5.006.026-7.496.263-4.47-.271-7.618-6.217-7.129-3.89.32-11.213-7.378-11.77-11.503-.5-3.717-.918-7.471-.99-11.216-.116-5.958-1.311-11.482-4.647-16.553-.68-1.032-.154-2.858.118-4.574"/></svg>